<?xml version="1.0" standalone="no"?>
<!DOCTYPE svg PUBLIC "-//W3C//DTD SVG 20010904//EN"
 "http://www.w3.org/TR/2001/REC-SVG-20010904/DTD/svg10.dtd">
<svg version="1.0" xmlns="http://www.w3.org/2000/svg"
 width="558.000000pt" height="558.000000pt" viewBox="0 0 558.000000 558.000000"
 preserveAspectRatio="xMidYMid meet">
<metadata>
Created by potrace 1.14, written by Peter Selinger 2001-2017
</metadata>
<g transform="translate(0.000000,558.000000) scale(0.100000,-0.100000)"
fill="#000000" stroke="none">
<path d="M0 2790 l0 -2790 2790 0 2790 0 0 2790 0 2790 -2790 0 -2790 0 0
-2790z m1497 2259 c166 -23 293 -87 415 -209 86 -88 141 -187 180 -326 22 -77
22 -96 26 -641 l3 -563 -145 0 -146 0 0 235 0 235 -420 0 -420 0 0 -235 0
-235 -146 0 -145 0 3 558 4 557 26 97 c88 322 332 521 660 537 15 0 62 -4 105
-10z m1713 -15 c112 -26 223 -86 304 -167 l72 -72 69 70 c146 146 365 214 600
185 311 -38 509 -212 593 -519 l26 -96 4 -562 3 -563 -145 0 -144 0 -5 533
c-4 576 -7 609 -61 715 -36 70 -87 119 -165 155 -57 27 -79 31 -174 35 -133 6
-217 -14 -285 -66 -57 -43 -76 -65 -103 -120 -52 -105 -52 -109 -58 -697 l-6
-550 -147 -3 -147 -3 -3 543 c-3 493 -5 549 -22 610 -39 141 -121 230 -249
269 -99 31 -267 24 -348 -13 -108 -49 -165 -123 -206 -263 -15 -53 -17 -126
-21 -602 l-3 -543 -145 0 -145 0 3 573 c4 553 4 575 26 652 97 354 357 539
727 519 50 -3 119 -12 155 -20z m-1947 -2731 c3 -674 4 -690 25 -773 69 -261
237 -424 507 -492 77 -19 116 -23 270 -23 155 0 192 4 263 23 272 74 429 229
504 497 22 79 22 92 26 768 l3 687 280 0 280 0 -4 -702 c-3 -668 -4 -708 -24
-793 -87 -378 -291 -647 -613 -810 -428 -216 -1033 -215 -1454 3 -315 162
-514 429 -598 800 -21 94 -22 119 -25 800 l-4 702 280 0 280 0 4 -687z m3617
-528 l0 -1215 -280 0 -280 0 0 1215 0 1215 280 0 280 0 0 -1215z"/>
<path d="M1273 4732 c-64 -23 -122 -62 -169 -115 -71 -78 -102 -185 -111 -384
l-6 -143 421 0 422 0 0 104 c0 284 -73 437 -248 519 -58 27 -80 32 -162 34
-73 3 -107 -1 -147 -15z"/>
</g>
</svg>
