<?xml version="1.0" standalone="no"?>
<!DOCTYPE svg PUBLIC "-//W3C//DTD SVG 20010904//EN"
 "http://www.w3.org/TR/2001/REC-SVG-20010904/DTD/svg10.dtd">
<svg version="1.0" xmlns="http://www.w3.org/2000/svg"
 width="700.000000pt" height="700.000000pt" viewBox="0 0 700.000000 700.000000"
 preserveAspectRatio="xMidYMid meet">
<metadata>
Created by potrace 1.14, written by Peter Selinger 2001-2017
</metadata>
<g transform="translate(0.000000,700.000000) scale(0.100000,-0.100000)"
fill="#000000" stroke="none">
<path d="M3155 6989 c-757 -60 -1474 -372 -2045 -890 -504 -458 -873 -1095
-1025 -1768 -115 -508 -115 -1154 0 -1662 98 -433 290 -863 549 -1229 209
-294 506 -593 787 -792 540 -382 1112 -588 1773 -639 211 -16 626 -6 823 20
378 51 703 148 1043 312 701 339 1238 871 1580 1564 184 373 282 699 337 1120
25 200 25 749 0 950 -53 411 -153 746 -332 1110 -245 498 -573 896 -1011 1226
-524 394 -1142 627 -1803 678 -152 12 -525 12 -676 0z m698 -1080 c258 -37
481 -106 722 -224 561 -275 992 -750 1209 -1333 102 -272 148 -532 148 -837 0
-217 -13 -343 -57 -539 -129 -575 -479 -1097 -967 -1442 -42 -30 -79 -54 -82
-54 -3 0 -6 71 -6 159 l0 159 69 56 c99 82 265 256 347 366 435 584 548 1321
309 2008 -203 582 -669 1064 -1249 1291 -596 233 -1269 192 -1829 -111 -840
-455 -1282 -1397 -1092 -2328 48 -231 152 -494 275 -695 111 -181 283 -379
452 -523 l78 -65 0 -159 c0 -87 -4 -158 -8 -158 -25 0 -286 213 -397 325 -384
383 -616 852 -692 1400 -24 168 -21 475 6 652 78 516 299 963 661 1337 187
193 389 344 620 464 459 239 967 325 1483 251z m-182 -579 c653 -66 1205 -450
1484 -1032 312 -649 209 -1423 -262 -1973 l-68 -80 -3 212 c-2 210 -2 213 22
251 231 366 286 859 145 1287 -178 538 -607 921 -1176 1047 -84 19 -128 22
-313 22 -185 0 -229 -3 -313 -22 -273 -61 -498 -171 -704 -343 -380 -320 -591
-828 -545 -1317 23 -246 102 -490 218 -674 24 -38 24 -41 22 -251 l-3 -212
-69 80 c-313 365 -466 826 -435 1312 40 639 425 1214 1004 1503 319 159 658
224 996 190z m-35 -1770 c225 -28 388 -104 529 -245 91 -91 134 -159 181 -283
78 -208 84 -301 84 -1258 0 -785 0 -791 -21 -818 -18 -23 -28 -26 -79 -26 -51
0 -61 3 -79 26 -21 26 -21 35 -21 605 l0 579 -730 0 -730 0 0 -579 c0 -570 0
-579 -21 -605 -18 -23 -28 -26 -79 -26 -52 0 -61 3 -80 27 l-21 27 4 871 c3
769 5 881 21 965 34 187 98 339 191 454 180 220 505 329 851 286z"/>
<path d="M3295 3365 c-240 -53 -399 -195 -475 -425 -34 -105 -50 -240 -50
-432 l0 -178 731 0 731 0 -5 223 c-4 197 -7 233 -30 319 -49 186 -124 301
-251 386 -135 90 -256 122 -459 121 -73 0 -159 -7 -192 -14z"/>
</g>
</svg>
