<svg width="430" height="398" viewBox="0 0 430 398" fill="none" xmlns="http://www.w3.org/2000/svg">
<g clip-path="url(#clip0_177_1585)">
<path d="M513.908 94.5569C513.232 92.6041 512.488 90.6511 511.677 88.6983C486.201 29.9647 531 -53.1292 478 -49.0537C424.5 -49.0537 319.63 -10.599 265.705 -49.0537C244.69 -64.0751 167.046 -17.1259 145.692 -31.3962C98.3901 -62.866 52.2207 -59.9369 8.5 -31.3962C-23.26 -10.5165 -19.9476 -27.7983 -54.4106 -37.1115C-78.7374 -43.6458 -126.158 23.9569 -132.848 70.6734C-138.377 109.182 -141.717 148.039 -142.849 187.014C-145.079 262.121 -236.558 236.869 -183.445 265.26C-145.333 285.614 -1.57033 325.271 41.5 319.5C93.4241 312.543 115.892 292.914 145.692 294.717C195.63 297.346 227.866 350.521 275.371 362.313C304.833 369.824 333.956 359.609 362.607 352.174C393.894 344.062 422.073 349.771 452.414 345.715C508.163 338.204 489.784 265.5 497.69 216.38C503.637 177.4 527.422 134.213 513.908 94.5569Z" fill="#ECC889"/>
<path fill-rule="evenodd" clip-rule="evenodd" d="M329.473 378.861C292.179 380.173 254.712 372.176 228.061 355.259C201.19 338.202 188.91 314.041 189 289.694C189.091 265.41 199.911 248.403 228.061 232.325C254.953 216.966 293.664 198.597 329.473 200.085C362.506 201.457 406.37 223.656 431.024 237.936C457.285 253.146 467.56 266.901 467.994 289.694C468.432 312.687 445.627 332.27 420.423 348.494C395.287 364.675 364.892 377.616 329.473 378.861Z" fill="#5F9BAB" stroke="white" stroke-width="10"/>
<path d="M61.328 47.872V73H56.288V62.308H45.524V73H40.484V47.872H45.524V58.204H56.288V47.872H61.328ZM68.8447 50.68C67.9567 50.68 67.2127 50.404 66.6127 49.852C66.0367 49.276 65.7487 48.568 65.7487 47.728C65.7487 46.888 66.0367 46.192 66.6127 45.64C67.2127 45.064 67.9567 44.776 68.8447 44.776C69.7327 44.776 70.4647 45.064 71.0407 45.64C71.6407 46.192 71.9407 46.888 71.9407 47.728C71.9407 48.568 71.6407 49.276 71.0407 49.852C70.4647 50.404 69.7327 50.68 68.8447 50.68ZM71.3287 53.056V73H66.2887V53.056H71.3287ZM81.8162 67.708L77.6042 77.824H74.3642L76.7042 67.708H81.8162ZM99.067 47.872V73H94.027V47.872H99.067ZM105.055 47.872H110.347L106.459 56.944H103.003L105.055 47.872ZM138.729 52.768C141.177 52.768 143.145 53.524 144.633 55.036C146.145 56.524 146.901 58.612 146.901 61.3V73H141.861V61.984C141.861 60.424 141.465 59.236 140.673 58.42C139.881 57.58 138.801 57.16 137.433 57.16C136.065 57.16 134.973 57.58 134.157 58.42C133.365 59.236 132.969 60.424 132.969 61.984V73H127.929V61.984C127.929 60.424 127.533 59.236 126.741 58.42C125.949 57.58 124.869 57.16 123.501 57.16C122.109 57.16 121.005 57.58 120.189 58.42C119.397 59.236 119.001 60.424 119.001 61.984V73H113.961V53.056H119.001V55.468C119.649 54.628 120.477 53.968 121.485 53.488C122.517 53.008 123.645 52.768 124.869 52.768C126.429 52.768 127.821 53.104 129.045 53.776C130.269 54.424 131.217 55.36 131.889 56.584C132.537 55.432 133.473 54.508 134.697 53.812C135.945 53.116 137.289 52.768 138.729 52.768ZM175.669 68.212H165.661L164.005 73H158.713L167.749 47.836H173.617L182.653 73H177.325L175.669 68.212ZM174.301 64.18L170.665 53.668L167.029 64.18H174.301ZM191.071 46.36V73H186.031V46.36H191.071ZM214.59 62.596C214.59 63.316 214.542 63.964 214.446 64.54H199.866C199.986 65.98 200.49 67.108 201.378 67.924C202.266 68.74 203.358 69.148 204.654 69.148C206.526 69.148 207.858 68.344 208.65 66.736H214.086C213.51 68.656 212.406 70.24 210.774 71.488C209.142 72.712 207.138 73.324 204.762 73.324C202.842 73.324 201.114 72.904 199.578 72.064C198.066 71.2 196.878 69.988 196.014 68.428C195.174 66.868 194.754 65.068 194.754 63.028C194.754 60.964 195.174 59.152 196.014 57.592C196.854 56.032 198.03 54.832 199.542 53.992C201.054 53.152 202.794 52.732 204.762 52.732C206.658 52.732 208.35 53.14 209.838 53.956C211.35 54.772 212.514 55.936 213.33 57.448C214.17 58.936 214.59 60.652 214.59 62.596ZM209.37 61.156C209.346 59.86 208.878 58.828 207.966 58.06C207.054 57.268 205.938 56.872 204.618 56.872C203.37 56.872 202.314 57.256 201.45 58.024C200.61 58.768 200.094 59.812 199.902 61.156H209.37ZM229.285 73L225.181 66.808L221.545 73H216.145L222.661 62.992L216.073 53.056H221.761L225.829 59.212L229.501 53.056H234.901L228.349 62.992L234.973 73H229.285ZM239.943 73.252C239.031 73.252 238.275 72.976 237.675 72.424C237.099 71.848 236.811 71.14 236.811 70.3C236.811 69.46 237.099 68.764 237.675 68.212C238.275 67.636 239.031 67.348 239.943 67.348C240.831 67.348 241.563 67.636 242.139 68.212C242.715 68.764 243.003 69.46 243.003 70.3C243.003 71.14 242.715 71.848 242.139 72.424C241.563 72.976 240.831 73.252 239.943 73.252Z" fill="#011E39"/>
<path d="M43.016 106.248V123H39.656V106.248H43.016ZM47.0077 106.248H50.5357L47.9437 112.296H45.6397L47.0077 106.248ZM69.4571 109.512C71.0891 109.512 72.4011 110.016 73.3931 111.024C74.4011 112.016 74.9051 113.408 74.9051 115.2V123H71.5451V115.656C71.5451 114.616 71.2811 113.824 70.7531 113.28C70.2251 112.72 69.5051 112.44 68.5931 112.44C67.6811 112.44 66.9531 112.72 66.4091 113.28C65.8811 113.824 65.6171 114.616 65.6171 115.656V123H62.2571V115.656C62.2571 114.616 61.9931 113.824 61.4651 113.28C60.9371 112.72 60.2171 112.44 59.3051 112.44C58.3771 112.44 57.6411 112.72 57.0971 113.28C56.5691 113.824 56.3051 114.616 56.3051 115.656V123H52.9451V109.704H56.3051V111.312C56.7371 110.752 57.2891 110.312 57.9611 109.992C58.6491 109.672 59.4011 109.512 60.2171 109.512C61.2571 109.512 62.1851 109.736 63.0011 110.184C63.8171 110.616 64.4491 111.24 64.8971 112.056C65.3291 111.288 65.9531 110.672 66.7691 110.208C67.6011 109.744 68.4971 109.512 69.4571 109.512ZM82.9482 116.304C82.9482 114.96 83.2122 113.768 83.7402 112.728C84.2843 111.688 85.0123 110.888 85.9243 110.328C86.8523 109.768 87.8843 109.488 89.0203 109.488C90.0123 109.488 90.8763 109.688 91.6123 110.088C92.3643 110.488 92.9643 110.992 93.4123 111.6V109.704H96.7963V123H93.4123V121.056C92.9803 121.68 92.3803 122.2 91.6123 122.616C90.8603 123.016 89.9883 123.216 88.9963 123.216C87.8763 123.216 86.8523 122.928 85.9243 122.352C85.0123 121.776 84.2843 120.968 83.7402 119.928C83.2122 118.872 82.9482 117.664 82.9482 116.304ZM93.4123 116.352C93.4123 115.536 93.2523 114.84 92.9323 114.264C92.6123 113.672 92.1803 113.224 91.6363 112.92C91.0923 112.6 90.5083 112.44 89.8843 112.44C89.2603 112.44 88.6843 112.592 88.1562 112.896C87.6283 113.2 87.1963 113.648 86.8603 114.24C86.5403 114.816 86.3803 115.504 86.3803 116.304C86.3803 117.104 86.5403 117.808 86.8603 118.416C87.1963 119.008 87.6283 119.464 88.1562 119.784C88.7003 120.104 89.2763 120.264 89.8843 120.264C90.5083 120.264 91.0923 120.112 91.6363 119.808C92.1803 119.488 92.6123 119.04 92.9323 118.464C93.2523 117.872 93.4123 117.168 93.4123 116.352ZM109.109 106.248V116.616C109.109 117.752 109.405 118.624 109.997 119.232C110.589 119.824 111.421 120.12 112.493 120.12C113.581 120.12 114.421 119.824 115.013 119.232C115.605 118.624 115.901 117.752 115.901 116.616V106.248H119.285V116.592C119.285 118.016 118.973 119.224 118.349 120.216C117.741 121.192 116.917 121.928 115.877 122.424C114.853 122.92 113.709 123.168 112.445 123.168C111.197 123.168 110.061 122.92 109.037 122.424C108.029 121.928 107.229 121.192 106.637 120.216C106.045 119.224 105.749 118.016 105.749 116.592V106.248H109.109ZM125.891 106.248V123H122.531V106.248H125.891ZM138.211 100.272L131.731 127.344H128.443L134.923 100.272H138.211ZM144.195 106.248V116.616C144.195 117.752 144.491 118.624 145.083 119.232C145.675 119.824 146.507 120.12 147.579 120.12C148.667 120.12 149.507 119.824 150.099 119.232C150.691 118.624 150.987 117.752 150.987 116.616V106.248H154.371V116.592C154.371 118.016 154.059 119.224 153.435 120.216C152.827 121.192 152.003 121.928 150.963 122.424C149.939 122.92 148.795 123.168 147.531 123.168C146.283 123.168 145.147 122.92 144.123 122.424C143.115 121.928 142.315 121.192 141.723 120.216C141.131 119.224 140.835 118.016 140.835 116.592V106.248H144.195ZM167.649 123L164.025 117.36L160.737 123H156.945L162.225 114.552L156.873 106.248H160.737L164.361 111.864L167.625 106.248H171.417L166.161 114.672L171.513 123H167.649ZM185.645 106.248C187.405 106.248 188.949 106.592 190.277 107.28C191.621 107.968 192.653 108.952 193.373 110.232C194.109 111.496 194.477 112.968 194.477 114.648C194.477 116.328 194.109 117.8 193.373 119.064C192.653 120.312 191.621 121.28 190.277 121.968C188.949 122.656 187.405 123 185.645 123H179.789V106.248H185.645ZM185.525 120.144C187.285 120.144 188.645 119.664 189.605 118.704C190.565 117.744 191.045 116.392 191.045 114.648C191.045 112.904 190.565 111.544 189.605 110.568C188.645 109.576 187.285 109.08 185.525 109.08H183.149V120.144H185.525ZM209.352 116.064C209.352 116.544 209.32 116.976 209.256 117.36H199.536C199.616 118.32 199.952 119.072 200.544 119.616C201.136 120.16 201.864 120.432 202.728 120.432C203.976 120.432 204.864 119.896 205.392 118.824H209.016C208.632 120.104 207.896 121.16 206.808 121.992C205.72 122.808 204.384 123.216 202.8 123.216C201.52 123.216 200.368 122.936 199.344 122.376C198.336 121.8 197.544 120.992 196.968 119.952C196.408 118.912 196.128 117.712 196.128 116.352C196.128 114.976 196.408 113.768 196.968 112.728C197.528 111.688 198.312 110.888 199.32 110.328C200.328 109.768 201.488 109.488 202.8 109.488C204.064 109.488 205.192 109.76 206.184 110.304C207.192 110.848 207.968 111.624 208.512 112.632C209.072 113.624 209.352 114.768 209.352 116.064ZM205.872 115.104C205.856 114.24 205.544 113.552 204.936 113.04C204.328 112.512 203.584 112.248 202.704 112.248C201.872 112.248 201.168 112.504 200.592 113.016C200.032 113.512 199.688 114.208 199.56 115.104H205.872ZM216.892 123.216C215.804 123.216 214.828 123.024 213.964 122.64C213.1 122.24 212.412 121.704 211.9 121.032C211.404 120.36 211.132 119.616 211.084 118.8H214.468C214.532 119.312 214.78 119.736 215.212 120.072C215.66 120.408 216.212 120.576 216.868 120.576C217.508 120.576 218.004 120.448 218.356 120.192C218.724 119.936 218.908 119.608 218.908 119.208C218.908 118.776 218.684 118.456 218.236 118.248C217.804 118.024 217.108 117.784 216.148 117.528C215.156 117.288 214.34 117.04 213.7 116.784C213.076 116.528 212.532 116.136 212.068 115.608C211.62 115.08 211.396 114.368 211.396 113.472C211.396 112.736 211.604 112.064 212.02 111.456C212.452 110.848 213.06 110.368 213.844 110.016C214.644 109.664 215.58 109.488 216.652 109.488C218.236 109.488 219.5 109.888 220.444 110.688C221.388 111.472 221.908 112.536 222.004 113.88H218.788C218.74 113.352 218.516 112.936 218.116 112.632C217.732 112.312 217.212 112.152 216.556 112.152C215.948 112.152 215.476 112.264 215.14 112.488C214.82 112.712 214.66 113.024 214.66 113.424C214.66 113.872 214.884 114.216 215.332 114.456C215.78 114.68 216.476 114.912 217.42 115.152C218.38 115.392 219.172 115.64 219.796 115.896C220.42 116.152 220.956 116.552 221.404 117.096C221.868 117.624 222.108 118.328 222.124 119.208C222.124 119.976 221.908 120.664 221.476 121.272C221.06 121.88 220.452 122.36 219.652 122.712C218.868 123.048 217.948 123.216 216.892 123.216ZM226.587 108.12C225.995 108.12 225.499 107.936 225.099 107.568C224.715 107.184 224.523 106.712 224.523 106.152C224.523 105.592 224.715 105.128 225.099 104.76C225.499 104.376 225.995 104.184 226.587 104.184C227.179 104.184 227.667 104.376 228.051 104.76C228.451 105.128 228.651 105.592 228.651 106.152C228.651 106.712 228.451 107.184 228.051 107.568C227.667 107.936 227.179 108.12 226.587 108.12ZM228.243 109.704V123H224.883V109.704H228.243ZM236.77 109.488C237.762 109.488 238.634 109.688 239.386 110.088C240.138 110.472 240.73 110.976 241.162 111.6V109.704H244.546V123.096C244.546 124.328 244.298 125.424 243.802 126.384C243.306 127.36 242.562 128.128 241.57 128.688C240.578 129.264 239.378 129.552 237.97 129.552C236.082 129.552 234.53 129.112 233.314 128.232C232.114 127.352 231.434 126.152 231.274 124.632H234.61C234.786 125.24 235.162 125.72 235.738 126.072C236.33 126.44 237.042 126.624 237.874 126.624C238.85 126.624 239.642 126.328 240.25 125.736C240.858 125.16 241.162 124.28 241.162 123.096V121.032C240.73 121.656 240.13 122.176 239.362 122.592C238.61 123.008 237.746 123.216 236.77 123.216C235.65 123.216 234.626 122.928 233.698 122.352C232.77 121.776 232.034 120.968 231.49 119.928C230.962 118.872 230.698 117.664 230.698 116.304C230.698 114.96 230.962 113.768 231.49 112.728C232.034 111.688 232.762 110.888 233.674 110.328C234.602 109.768 235.634 109.488 236.77 109.488ZM241.162 116.352C241.162 115.536 241.002 114.84 240.682 114.264C240.362 113.672 239.93 113.224 239.386 112.92C238.842 112.6 238.258 112.44 237.634 112.44C237.01 112.44 236.434 112.592 235.906 112.896C235.378 113.2 234.946 113.648 234.61 114.24C234.29 114.816 234.13 115.504 234.13 116.304C234.13 117.104 234.29 117.808 234.61 118.416C234.946 119.008 235.378 119.464 235.906 119.784C236.45 120.104 237.026 120.264 237.634 120.264C238.258 120.264 238.842 120.112 239.386 119.808C239.93 119.488 240.362 119.04 240.682 118.464C241.002 117.872 241.162 117.168 241.162 116.352ZM255.196 109.512C256.78 109.512 258.06 110.016 259.036 111.024C260.012 112.016 260.5 113.408 260.5 115.2V123H257.14V115.656C257.14 114.6 256.876 113.792 256.348 113.232C255.82 112.656 255.1 112.368 254.188 112.368C253.26 112.368 252.524 112.656 251.98 113.232C251.452 113.792 251.188 114.6 251.188 115.656V123H247.828V109.704H251.188V111.36C251.636 110.784 252.204 110.336 252.892 110.016C253.596 109.68 254.364 109.512 255.196 109.512ZM276.055 116.064C276.055 116.544 276.023 116.976 275.959 117.36H266.239C266.319 118.32 266.655 119.072 267.247 119.616C267.839 120.16 268.567 120.432 269.431 120.432C270.679 120.432 271.567 119.896 272.095 118.824H275.719C275.335 120.104 274.599 121.16 273.511 121.992C272.423 122.808 271.087 123.216 269.503 123.216C268.223 123.216 267.071 122.936 266.047 122.376C265.039 121.8 264.247 120.992 263.671 119.952C263.111 118.912 262.831 117.712 262.831 116.352C262.831 114.976 263.111 113.768 263.671 112.728C264.231 111.688 265.015 110.888 266.023 110.328C267.031 109.768 268.191 109.488 269.503 109.488C270.767 109.488 271.895 109.76 272.887 110.304C273.895 110.848 274.671 111.624 275.215 112.632C275.775 113.624 276.055 114.768 276.055 116.064ZM272.575 115.104C272.559 114.24 272.247 113.552 271.639 113.04C271.031 112.512 270.287 112.248 269.407 112.248C268.575 112.248 267.871 112.504 267.295 113.016C266.735 113.512 266.391 114.208 266.263 115.104H272.575ZM281.868 111.768C282.3 111.064 282.86 110.512 283.548 110.112C284.252 109.712 285.052 109.512 285.948 109.512V113.04H285.06C284.004 113.04 283.204 113.288 282.66 113.784C282.132 114.28 281.868 115.144 281.868 116.376V123H278.508V109.704H281.868V111.768ZM289.699 123.168C289.091 123.168 288.587 122.984 288.187 122.616C287.803 122.232 287.611 121.76 287.611 121.2C287.611 120.64 287.803 120.176 288.187 119.808C288.587 119.424 289.091 119.232 289.699 119.232C290.291 119.232 290.779 119.424 291.163 119.808C291.547 120.176 291.739 120.64 291.739 121.2C291.739 121.76 291.547 122.232 291.163 122.616C290.779 122.984 290.291 123.168 289.699 123.168Z" fill="white"/>
<path d="M275.52 263.32L270.576 280H267.48L263.976 267.376L260.256 280L257.184 280.024L252.456 263.32H255.36L258.816 276.904L262.56 263.32H265.632L269.112 276.832L272.592 263.32H275.52ZM289.897 273.064C289.897 273.56 289.865 274.008 289.801 274.408H279.697C279.777 275.464 280.169 276.312 280.873 276.952C281.577 277.592 282.441 277.912 283.465 277.912C284.937 277.912 285.977 277.296 286.585 276.064H289.537C289.137 277.28 288.409 278.28 287.353 279.064C286.313 279.832 285.017 280.216 283.465 280.216C282.201 280.216 281.065 279.936 280.057 279.376C279.065 278.8 278.281 278 277.705 276.976C277.145 275.936 276.865 274.736 276.865 273.376C276.865 272.016 277.137 270.824 277.681 269.8C278.241 268.76 279.017 267.96 280.009 267.4C281.017 266.84 282.169 266.56 283.465 266.56C284.713 266.56 285.825 266.832 286.801 267.376C287.777 267.92 288.537 268.688 289.081 269.68C289.625 270.656 289.897 271.784 289.897 273.064ZM287.041 272.2C287.025 271.192 286.665 270.384 285.961 269.776C285.257 269.168 284.385 268.864 283.345 268.864C282.401 268.864 281.593 269.168 280.921 269.776C280.249 270.368 279.849 271.176 279.721 272.2H287.041ZM295.325 262.24V280H292.589V262.24H295.325ZM298.005 273.376C298.005 272.016 298.277 270.824 298.821 269.8C299.381 268.76 300.149 267.96 301.125 267.4C302.101 266.84 303.221 266.56 304.485 266.56C306.085 266.56 307.405 266.944 308.445 267.712C309.501 268.464 310.213 269.544 310.581 270.952H307.629C307.389 270.296 307.005 269.784 306.477 269.416C305.949 269.048 305.285 268.864 304.485 268.864C303.365 268.864 302.469 269.264 301.797 270.064C301.141 270.848 300.813 271.952 300.813 273.376C300.813 274.8 301.141 275.912 301.797 276.712C302.469 277.512 303.365 277.912 304.485 277.912C306.069 277.912 307.117 277.216 307.629 275.824H310.581C310.197 277.168 309.477 278.24 308.421 279.04C307.365 279.824 306.053 280.216 304.485 280.216C303.221 280.216 302.101 279.936 301.125 279.376C300.149 278.8 299.381 278 298.821 276.976C298.277 275.936 298.005 274.736 298.005 273.376ZM319.044 280.216C317.796 280.216 316.668 279.936 315.66 279.376C314.652 278.8 313.86 278 313.284 276.976C312.708 275.936 312.42 274.736 312.42 273.376C312.42 272.032 312.716 270.84 313.308 269.8C313.9 268.76 314.708 267.96 315.732 267.4C316.756 266.84 317.9 266.56 319.164 266.56C320.428 266.56 321.572 266.84 322.596 267.4C323.62 267.96 324.428 268.76 325.02 269.8C325.612 270.84 325.908 272.032 325.908 273.376C325.908 274.72 325.604 275.912 324.996 276.952C324.388 277.992 323.556 278.8 322.5 279.376C321.46 279.936 320.308 280.216 319.044 280.216ZM319.044 277.84C319.748 277.84 320.404 277.672 321.012 277.336C321.636 277 322.14 276.496 322.524 275.824C322.908 275.152 323.1 274.336 323.1 273.376C323.1 272.416 322.916 271.608 322.548 270.952C322.18 270.28 321.692 269.776 321.084 269.44C320.476 269.104 319.82 268.936 319.116 268.936C318.412 268.936 317.756 269.104 317.148 269.44C316.556 269.776 316.084 270.28 315.732 270.952C315.38 271.608 315.204 272.416 315.204 273.376C315.204 274.8 315.564 275.904 316.284 276.688C317.02 277.456 317.94 277.84 319.044 277.84ZM344.621 266.56C345.661 266.56 346.589 266.776 347.405 267.208C348.237 267.64 348.885 268.28 349.349 269.128C349.829 269.976 350.069 271 350.069 272.2V280H347.357V272.608C347.357 271.424 347.061 270.52 346.469 269.896C345.877 269.256 345.069 268.936 344.045 268.936C343.021 268.936 342.205 269.256 341.597 269.896C341.005 270.52 340.709 271.424 340.709 272.608V280H337.997V272.608C337.997 271.424 337.701 270.52 337.109 269.896C336.517 269.256 335.709 268.936 334.685 268.936C333.661 268.936 332.845 269.256 332.237 269.896C331.645 270.52 331.349 271.424 331.349 272.608V280H328.613V266.776H331.349V268.288C331.797 267.744 332.365 267.32 333.053 267.016C333.741 266.712 334.477 266.56 335.261 266.56C336.317 266.56 337.261 266.784 338.093 267.232C338.925 267.68 339.565 268.328 340.013 269.176C340.413 268.376 341.037 267.744 341.885 267.28C342.733 266.8 343.645 266.56 344.621 266.56ZM365.67 273.064C365.67 273.56 365.638 274.008 365.574 274.408H355.47C355.55 275.464 355.942 276.312 356.646 276.952C357.35 277.592 358.214 277.912 359.238 277.912C360.71 277.912 361.75 277.296 362.358 276.064H365.31C364.91 277.28 364.182 278.28 363.126 279.064C362.086 279.832 360.79 280.216 359.238 280.216C357.974 280.216 356.838 279.936 355.83 279.376C354.838 278.8 354.054 278 353.478 276.976C352.918 275.936 352.638 274.736 352.638 273.376C352.638 272.016 352.91 270.824 353.454 269.8C354.014 268.76 354.79 267.96 355.782 267.4C356.79 266.84 357.942 266.56 359.238 266.56C360.486 266.56 361.598 266.832 362.574 267.376C363.55 267.92 364.31 268.688 364.854 269.68C365.398 270.656 365.67 271.784 365.67 273.064ZM362.814 272.2C362.798 271.192 362.438 270.384 361.734 269.776C361.03 269.168 360.158 268.864 359.118 268.864C358.174 268.864 357.366 269.168 356.694 269.776C356.022 270.368 355.622 271.176 355.494 272.2H362.814ZM377.789 269.008V276.328C377.789 276.824 377.901 277.184 378.125 277.408C378.365 277.616 378.765 277.72 379.325 277.72H381.005V280H378.845C377.613 280 376.669 279.712 376.013 279.136C375.357 278.56 375.029 277.624 375.029 276.328V269.008H373.469V266.776H375.029V263.488H377.789V266.776H381.005V269.008H377.789ZM389.263 280.216C388.015 280.216 386.887 279.936 385.879 279.376C384.871 278.8 384.079 278 383.503 276.976C382.927 275.936 382.639 274.736 382.639 273.376C382.639 272.032 382.935 270.84 383.527 269.8C384.119 268.76 384.927 267.96 385.951 267.4C386.975 266.84 388.119 266.56 389.383 266.56C390.647 266.56 391.791 266.84 392.815 267.4C393.839 267.96 394.647 268.76 395.239 269.8C395.831 270.84 396.127 272.032 396.127 273.376C396.127 274.72 395.823 275.912 395.215 276.952C394.607 277.992 393.775 278.8 392.719 279.376C391.679 279.936 390.527 280.216 389.263 280.216ZM389.263 277.84C389.967 277.84 390.623 277.672 391.231 277.336C391.855 277 392.359 276.496 392.743 275.824C393.127 275.152 393.319 274.336 393.319 273.376C393.319 272.416 393.135 271.608 392.767 270.952C392.399 270.28 391.911 269.776 391.303 269.44C390.695 269.104 390.039 268.936 389.335 268.936C388.631 268.936 387.975 269.104 387.367 269.44C386.775 269.776 386.303 270.28 385.951 270.952C385.599 271.608 385.423 272.416 385.423 273.376C385.423 274.8 385.783 275.904 386.503 276.688C387.239 277.456 388.159 277.84 389.263 277.84ZM269.808 302.56C270.848 302.56 271.776 302.776 272.592 303.208C273.424 303.64 274.072 304.28 274.536 305.128C275.016 305.976 275.256 307 275.256 308.2V316H272.544V308.608C272.544 307.424 272.248 306.52 271.656 305.896C271.064 305.256 270.256 304.936 269.232 304.936C268.208 304.936 267.392 305.256 266.784 305.896C266.192 306.52 265.896 307.424 265.896 308.608V316H263.184V308.608C263.184 307.424 262.888 306.52 262.296 305.896C261.704 305.256 260.896 304.936 259.872 304.936C258.848 304.936 258.032 305.256 257.424 305.896C256.832 306.52 256.536 307.424 256.536 308.608V316H253.8V302.776H256.536V304.288C256.984 303.744 257.552 303.32 258.24 303.016C258.928 302.712 259.664 302.56 260.448 302.56C261.504 302.56 262.448 302.784 263.28 303.232C264.112 303.68 264.752 304.328 265.2 305.176C265.6 304.376 266.224 303.744 267.072 303.28C267.92 302.8 268.832 302.56 269.808 302.56ZM290.642 302.776L282.53 322.216H279.698L282.386 315.784L277.178 302.776H280.226L283.946 312.856L287.81 302.776H290.642ZM316.701 302.776L312.597 316H309.717L307.053 306.232L304.389 316H301.509L297.381 302.776H300.165L302.925 313.408L305.733 302.776H308.589L311.277 313.36L314.013 302.776H316.701ZM330.865 309.064C330.865 309.56 330.833 310.008 330.769 310.408H320.665C320.745 311.464 321.137 312.312 321.841 312.952C322.545 313.592 323.409 313.912 324.433 313.912C325.905 313.912 326.945 313.296 327.553 312.064H330.505C330.105 313.28 329.377 314.28 328.321 315.064C327.281 315.832 325.985 316.216 324.433 316.216C323.169 316.216 322.033 315.936 321.025 315.376C320.033 314.8 319.249 314 318.673 312.976C318.113 311.936 317.833 310.736 317.833 309.376C317.833 308.016 318.105 306.824 318.649 305.8C319.209 304.76 319.985 303.96 320.977 303.4C321.985 302.84 323.137 302.56 324.433 302.56C325.681 302.56 326.793 302.832 327.769 303.376C328.745 303.92 329.505 304.688 330.049 305.68C330.593 306.656 330.865 307.784 330.865 309.064ZM328.009 308.2C327.993 307.192 327.633 306.384 326.929 305.776C326.225 305.168 325.353 304.864 324.313 304.864C323.369 304.864 322.561 305.168 321.889 305.776C321.217 306.368 320.817 307.176 320.689 308.2H328.009ZM336.294 304.744C336.758 304.104 337.39 303.584 338.19 303.184C339.006 302.768 339.91 302.56 340.902 302.56C342.07 302.56 343.126 302.84 344.07 303.4C345.014 303.96 345.758 304.76 346.302 305.8C346.846 306.824 347.118 308 347.118 309.328C347.118 310.656 346.846 311.848 346.302 312.904C345.758 313.944 345.006 314.76 344.046 315.352C343.102 315.928 342.054 316.216 340.902 316.216C339.878 316.216 338.966 316.016 338.166 315.616C337.382 315.216 336.758 314.704 336.294 314.08V316H333.558V298.24H336.294V304.744ZM344.334 309.328C344.334 308.416 344.142 307.632 343.758 306.976C343.39 306.304 342.894 305.8 342.27 305.464C341.662 305.112 341.006 304.936 340.302 304.936C339.614 304.936 338.958 305.112 338.334 305.464C337.726 305.816 337.23 306.328 336.846 307C336.478 307.672 336.294 308.464 336.294 309.376C336.294 310.288 336.478 311.088 336.846 311.776C337.23 312.448 337.726 312.96 338.334 313.312C338.958 313.664 339.614 313.84 340.302 313.84C341.006 313.84 341.662 313.664 342.27 313.312C342.894 312.944 343.39 312.416 343.758 311.728C344.142 311.04 344.334 310.24 344.334 309.328ZM354.623 316.216C353.583 316.216 352.647 316.032 351.815 315.664C350.999 315.28 350.351 314.768 349.871 314.128C349.391 313.472 349.135 312.744 349.103 311.944H351.935C351.983 312.504 352.247 312.976 352.727 313.36C353.223 313.728 353.839 313.912 354.575 313.912C355.343 313.912 355.935 313.768 356.351 313.48C356.783 313.176 356.999 312.792 356.999 312.328C356.999 311.832 356.759 311.464 356.279 311.224C355.815 310.984 355.071 310.72 354.047 310.432C353.055 310.16 352.247 309.896 351.623 309.64C350.999 309.384 350.455 308.992 349.991 308.464C349.543 307.936 349.319 307.24 349.319 306.376C349.319 305.672 349.527 305.032 349.943 304.456C350.359 303.864 350.951 303.4 351.719 303.064C352.503 302.728 353.399 302.56 354.407 302.56C355.911 302.56 357.119 302.944 358.031 303.712C358.959 304.464 359.455 305.496 359.519 306.808H356.783C356.735 306.216 356.495 305.744 356.063 305.392C355.631 305.04 355.047 304.864 354.311 304.864C353.591 304.864 353.039 305 352.655 305.272C352.271 305.544 352.079 305.904 352.079 306.352C352.079 306.704 352.207 307 352.463 307.24C352.719 307.48 353.031 307.672 353.399 307.816C353.767 307.944 354.311 308.112 355.031 308.32C355.991 308.576 356.775 308.84 357.383 309.112C358.007 309.368 358.543 309.752 358.991 310.264C359.439 310.776 359.671 311.456 359.687 312.304C359.687 313.056 359.479 313.728 359.063 314.32C358.647 314.912 358.055 315.376 357.287 315.712C356.535 316.048 355.647 316.216 354.623 316.216ZM364.036 301.024C363.54 301.024 363.124 300.856 362.788 300.52C362.452 300.184 362.284 299.768 362.284 299.272C362.284 298.776 362.452 298.36 362.788 298.024C363.124 297.688 363.54 297.52 364.036 297.52C364.516 297.52 364.924 297.688 365.26 298.024C365.596 298.36 365.764 298.776 365.764 299.272C365.764 299.768 365.596 300.184 365.26 300.52C364.924 300.856 364.516 301.024 364.036 301.024ZM365.38 302.776V316H362.644V302.776H365.38ZM372.164 305.008V312.328C372.164 312.824 372.276 313.184 372.5 313.408C372.74 313.616 373.14 313.72 373.7 313.72H375.38V316H373.22C371.988 316 371.044 315.712 370.388 315.136C369.732 314.56 369.404 313.624 369.404 312.328V305.008H367.844V302.776H369.404V299.488H372.164V302.776H375.38V305.008H372.164ZM390.022 309.064C390.022 309.56 389.99 310.008 389.926 310.408H379.822C379.902 311.464 380.294 312.312 380.998 312.952C381.702 313.592 382.566 313.912 383.59 313.912C385.062 313.912 386.102 313.296 386.71 312.064H389.662C389.262 313.28 388.534 314.28 387.478 315.064C386.438 315.832 385.142 316.216 383.59 316.216C382.326 316.216 381.19 315.936 380.182 315.376C379.19 314.8 378.406 314 377.83 312.976C377.27 311.936 376.99 310.736 376.99 309.376C376.99 308.016 377.262 306.824 377.806 305.8C378.366 304.76 379.142 303.96 380.134 303.4C381.142 302.84 382.294 302.56 383.59 302.56C384.838 302.56 385.95 302.832 386.926 303.376C387.902 303.92 388.662 304.688 389.206 305.68C389.75 306.656 390.022 307.784 390.022 309.064ZM387.166 308.2C387.15 307.192 386.79 306.384 386.086 305.776C385.382 305.168 384.51 304.864 383.47 304.864C382.526 304.864 381.718 305.168 381.046 305.776C380.374 306.368 379.974 307.176 379.846 308.2H387.166ZM393.818 316.168C393.322 316.168 392.906 316 392.57 315.664C392.234 315.328 392.066 314.912 392.066 314.416C392.066 313.92 392.234 313.504 392.57 313.168C392.906 312.832 393.322 312.664 393.818 312.664C394.298 312.664 394.706 312.832 395.042 313.168C395.378 313.504 395.546 313.92 395.546 314.416C395.546 314.912 395.378 315.328 395.042 315.664C394.706 316 394.298 316.168 393.818 316.168Z" fill="white"/>
</g>
<defs>
<clipPath id="clip0_177_1585">
<rect width="430" height="398" fill="white"/>
</clipPath>
</defs>
</svg>
