<svg width="1024" height="492" viewBox="0 0 1024 492" fill="none" xmlns="http://www.w3.org/2000/svg">
<g clip-path="url(#clip0_181_1365)">
<path d="M1339.57 53.3205C1337.85 50.8792 1335.95 48.4375 1333.88 45.9962C1268.95 -27.432 1184.64 27.7554 1072 64C959.361 100.245 861.44 2.07579 724 -46C670.436 -64.7796 541.286 3.55504 486.861 -14.2856C366.3 -53.6288 256.433 -65.3258 145 -29.6445C-74 -14.2856 -80.1625 -43.3567 -168 -55C-230.003 -63.1691 -291.796 -34.943 -308.846 23.4616C-322.939 71.6043 -331.452 120.183 -334.336 168.91C-340.02 262.808 -573.178 231.238 -437.805 266.732C-340.667 292.178 82.8018 362.151 182.868 338.865C253.654 322.433 325.129 301.305 401.082 303.559C528.36 306.845 610.522 373.325 731.599 388.067C806.692 397.457 880.918 384.687 953.943 375.391C1033.69 365.25 1105.51 372.387 1182.84 367.316C1324.93 357.926 1278.08 267.032 1298.24 205.623C1313.39 156.89 1374.02 102.899 1339.57 53.3205Z" fill="#ECC889"/>
<path fill-rule="evenodd" clip-rule="evenodd" d="M765.534 476.968C713.638 479.033 661.501 466.445 624.415 439.818C587.023 412.97 569.935 374.941 570.061 336.62C570.188 298.397 585.244 271.627 624.415 246.321C661.836 222.145 715.705 193.234 765.534 195.575C811.5 197.735 872.539 232.676 906.846 255.152C943.388 279.093 957.686 300.744 958.29 336.62C958.9 372.811 927.166 403.635 892.093 429.171C857.116 454.639 814.82 475.008 765.534 476.968Z" fill="#5F9BAB" stroke="white" stroke-width="20"/>
<path d="M131.472 82.6835V127.355H122.512V108.347H103.376V127.355H94.416V82.6835H103.376V101.051H122.512V82.6835H131.472ZM144.835 87.6755C143.256 87.6755 141.934 87.1848 140.867 86.2035C139.843 85.1795 139.331 83.9208 139.331 82.4275C139.331 80.9341 139.843 79.6968 140.867 78.7155C141.934 77.6915 143.256 77.1795 144.835 77.1795C146.414 77.1795 147.715 77.6915 148.739 78.7155C149.806 79.6968 150.339 80.9341 150.339 82.4275C150.339 83.9208 149.806 85.1795 148.739 86.2035C147.715 87.1848 146.414 87.6755 144.835 87.6755ZM149.251 91.8995V127.355H140.291V91.8995H149.251ZM167.896 117.947L160.408 135.931H154.648L158.808 117.947H167.896ZM198.564 82.6835V127.355H189.604V82.6835H198.564ZM209.208 82.6835H218.616L211.704 98.8115H205.56L209.208 82.6835ZM269.073 91.3875C273.425 91.3875 276.924 92.7315 279.569 95.4195C282.257 98.0648 283.601 101.777 283.601 106.555V127.355H274.641V107.771C274.641 104.998 273.937 102.886 272.529 101.435C271.121 99.9421 269.201 99.1955 266.769 99.1955C264.337 99.1955 262.396 99.9421 260.945 101.435C259.537 102.886 258.833 104.998 258.833 107.771V127.355H249.873V107.771C249.873 104.998 249.169 102.886 247.761 101.435C246.353 99.9421 244.433 99.1955 242.001 99.1955C239.526 99.1955 237.564 99.9421 236.113 101.435C234.705 102.886 234.001 104.998 234.001 107.771V127.355H225.041V91.8995H234.001V96.1875C235.153 94.6941 236.625 93.5208 238.417 92.6675C240.252 91.8141 242.257 91.3875 244.433 91.3875C247.206 91.3875 249.681 91.9848 251.857 93.1795C254.033 94.3315 255.718 95.9955 256.913 98.1715C258.065 96.1235 259.729 94.4808 261.905 93.2435C264.124 92.0061 266.513 91.3875 269.073 91.3875ZM334.746 118.843H316.954L314.01 127.355H304.602L320.666 82.6195H331.098L347.162 127.355H337.69L334.746 118.843ZM332.314 111.675L325.85 92.9875L319.385 111.675H332.314ZM362.126 79.9955V127.355H353.166V79.9955H362.126ZM403.939 108.859C403.939 110.139 403.853 111.291 403.683 112.315H377.763C377.976 114.875 378.872 116.881 380.451 118.331C382.029 119.782 383.971 120.507 386.275 120.507C389.603 120.507 391.971 119.078 393.379 116.219H403.043C402.019 119.633 400.056 122.449 397.155 124.667C394.253 126.843 390.691 127.931 386.467 127.931C383.053 127.931 379.981 127.185 377.251 125.691C374.563 124.155 372.451 122.001 370.915 119.227C369.421 116.454 368.674 113.254 368.674 109.627C368.674 105.958 369.421 102.737 370.915 99.9635C372.408 97.1901 374.499 95.0568 377.187 93.5635C379.875 92.0701 382.968 91.3235 386.467 91.3235C389.837 91.3235 392.845 92.0488 395.491 93.4995C398.179 94.9501 400.248 97.0195 401.699 99.7075C403.192 102.353 403.939 105.403 403.939 108.859ZM394.659 106.299C394.616 103.995 393.784 102.161 392.163 100.795C390.541 99.3875 388.557 98.6835 386.211 98.6835C383.992 98.6835 382.115 99.3661 380.579 100.731C379.085 102.054 378.168 103.91 377.827 106.299H394.659ZM430.063 127.355L422.767 116.347L416.303 127.355H406.703L418.287 109.563L406.575 91.8995H416.687L423.919 102.843L430.447 91.8995H440.047L428.399 109.563L440.175 127.355H430.063ZM449.009 127.803C447.388 127.803 446.044 127.313 444.977 126.331C443.953 125.307 443.441 124.049 443.441 122.555C443.441 121.062 443.953 119.825 444.977 118.843C446.044 117.819 447.388 117.307 449.009 117.307C450.588 117.307 451.889 117.819 452.913 118.843C453.937 119.825 454.449 121.062 454.449 122.555C454.449 124.049 453.937 125.307 452.913 126.331C451.889 127.313 450.588 127.803 449.009 127.803Z" fill="#011E39"/>
<path d="M96.804 168.335V193.355H92.7V168.335H96.804ZM102.84 168.335H107.304L103.524 176.903H100.644L102.84 168.335ZM134.923 173.195C136.483 173.195 137.875 173.519 139.099 174.167C140.347 174.815 141.319 175.775 142.015 177.047C142.735 178.319 143.095 179.855 143.095 181.655V193.355H139.027V182.267C139.027 180.491 138.583 179.135 137.695 178.199C136.807 177.239 135.595 176.759 134.059 176.759C132.523 176.759 131.299 177.239 130.387 178.199C129.499 179.135 129.055 180.491 129.055 182.267V193.355H124.987V182.267C124.987 180.491 124.543 179.135 123.655 178.199C122.767 177.239 121.555 176.759 120.019 176.759C118.483 176.759 117.259 177.239 116.347 178.199C115.459 179.135 115.015 180.491 115.015 182.267V193.355H110.911V173.519H115.015V175.787C115.687 174.971 116.539 174.335 117.571 173.879C118.603 173.423 119.707 173.195 120.883 173.195C122.467 173.195 123.883 173.531 125.131 174.203C126.379 174.875 127.339 175.847 128.011 177.119C128.611 175.919 129.547 174.971 130.819 174.275C132.091 173.555 133.459 173.195 134.923 173.195ZM156.301 183.347C156.301 181.355 156.709 179.591 157.525 178.055C158.365 176.519 159.493 175.331 160.909 174.491C162.349 173.627 163.933 173.195 165.661 173.195C167.221 173.195 168.577 173.507 169.729 174.131C170.905 174.731 171.841 175.487 172.537 176.399V173.519H176.677V193.355H172.537V190.403C171.841 191.339 170.893 192.119 169.693 192.743C168.493 193.367 167.125 193.679 165.589 193.679C163.885 193.679 162.325 193.247 160.909 192.383C159.493 191.495 158.365 190.271 157.525 188.711C156.709 187.127 156.301 185.339 156.301 183.347ZM172.537 183.419C172.537 182.051 172.249 180.863 171.673 179.855C171.121 178.847 170.389 178.079 169.477 177.551C168.565 177.023 167.581 176.759 166.525 176.759C165.469 176.759 164.485 177.023 163.573 177.551C162.661 178.055 161.917 178.811 161.341 179.819C160.789 180.803 160.513 181.979 160.513 183.347C160.513 184.715 160.789 185.915 161.341 186.947C161.917 187.979 162.661 188.771 163.573 189.323C164.509 189.851 165.493 190.115 166.525 190.115C167.581 190.115 168.565 189.851 169.477 189.323C170.389 188.795 171.121 188.027 171.673 187.019C172.249 185.987 172.537 184.787 172.537 183.419ZM195.487 168.335V184.283C195.487 186.179 195.979 187.607 196.963 188.567C197.971 189.527 199.363 190.007 201.139 190.007C202.939 190.007 204.331 189.527 205.315 188.567C206.323 187.607 206.827 186.179 206.827 184.283V168.335H210.931V184.211C210.931 186.251 210.487 187.979 209.599 189.395C208.711 190.811 207.523 191.867 206.035 192.563C204.547 193.259 202.903 193.607 201.103 193.607C199.303 193.607 197.659 193.259 196.171 192.563C194.707 191.867 193.543 190.811 192.679 189.395C191.815 187.979 191.383 186.251 191.383 184.211V168.335H195.487ZM220.378 168.335V193.355H216.274V168.335H220.378ZM248.438 159.371L238.646 199.655H234.614L244.37 159.371H248.438ZM267.03 168.335V184.283C267.03 186.179 267.522 187.607 268.506 188.567C269.514 189.527 270.906 190.007 272.682 190.007C274.482 190.007 275.874 189.527 276.858 188.567C277.866 187.607 278.37 186.179 278.37 184.283V168.335H282.474V184.211C282.474 186.251 282.03 187.979 281.142 189.395C280.254 190.811 279.066 191.867 277.578 192.563C276.09 193.259 274.446 193.607 272.646 193.607C270.846 193.607 269.202 193.259 267.714 192.563C266.25 191.867 265.086 190.811 264.222 189.395C263.358 187.979 262.926 186.251 262.926 184.211V168.335H267.03ZM299.301 180.863L307.077 193.355H302.469L296.817 184.283L291.525 193.355H286.953L294.729 180.863L286.917 168.335H291.525L297.213 177.479L302.541 168.335H307.113L299.301 180.863ZM329.106 168.335C331.77 168.335 334.098 168.851 336.09 169.883C338.106 170.891 339.654 172.355 340.734 174.275C341.838 176.171 342.39 178.391 342.39 180.935C342.39 183.479 341.838 185.687 340.734 187.559C339.654 189.431 338.106 190.871 336.09 191.879C334.098 192.863 331.77 193.355 329.106 193.355H320.934V168.335H329.106ZM329.106 190.007C332.034 190.007 334.278 189.215 335.838 187.631C337.398 186.047 338.178 183.815 338.178 180.935C338.178 178.031 337.398 175.763 335.838 174.131C334.278 172.499 332.034 171.683 329.106 171.683H325.038V190.007H329.106ZM364.638 182.951C364.638 183.695 364.59 184.367 364.494 184.967H349.338C349.458 186.551 350.046 187.823 351.102 188.783C352.158 189.743 353.454 190.223 354.99 190.223C357.198 190.223 358.758 189.299 359.67 187.451H364.098C363.498 189.275 362.406 190.775 360.822 191.951C359.262 193.103 357.318 193.679 354.99 193.679C353.094 193.679 351.39 193.259 349.878 192.419C348.39 191.555 347.214 190.355 346.35 188.819C345.51 187.259 345.09 185.459 345.09 183.419C345.09 181.379 345.498 179.591 346.314 178.055C347.154 176.495 348.318 175.295 349.806 174.455C351.318 173.615 353.046 173.195 354.99 173.195C356.862 173.195 358.53 173.603 359.994 174.419C361.458 175.235 362.598 176.387 363.414 177.875C364.23 179.339 364.638 181.031 364.638 182.951ZM360.354 181.655C360.33 180.143 359.79 178.931 358.734 178.019C357.678 177.107 356.37 176.651 354.81 176.651C353.394 176.651 352.182 177.107 351.174 178.019C350.166 178.907 349.566 180.119 349.374 181.655H360.354ZM375.877 193.679C374.317 193.679 372.913 193.403 371.665 192.851C370.441 192.275 369.469 191.507 368.749 190.547C368.029 189.563 367.645 188.471 367.597 187.271H371.845C371.917 188.111 372.313 188.819 373.033 189.395C373.777 189.947 374.701 190.223 375.805 190.223C376.957 190.223 377.845 190.007 378.469 189.575C379.117 189.119 379.441 188.543 379.441 187.847C379.441 187.103 379.081 186.551 378.361 186.191C377.665 185.831 376.549 185.435 375.013 185.003C373.525 184.595 372.313 184.199 371.377 183.815C370.441 183.431 369.625 182.843 368.929 182.051C368.257 181.259 367.921 180.215 367.921 178.919C367.921 177.863 368.233 176.903 368.857 176.039C369.481 175.151 370.369 174.455 371.521 173.951C372.697 173.447 374.041 173.195 375.553 173.195C377.809 173.195 379.621 173.771 380.989 174.923C382.381 176.051 383.125 177.599 383.221 179.567H379.117C379.045 178.679 378.685 177.971 378.037 177.443C377.389 176.915 376.513 176.651 375.409 176.651C374.329 176.651 373.501 176.855 372.925 177.263C372.349 177.671 372.061 178.211 372.061 178.883C372.061 179.411 372.253 179.855 372.637 180.215C373.021 180.575 373.489 180.863 374.041 181.079C374.593 181.271 375.409 181.523 376.489 181.835C377.929 182.219 379.105 182.615 380.017 183.023C380.953 183.407 381.757 183.983 382.429 184.751C383.101 185.519 383.449 186.539 383.473 187.811C383.473 188.939 383.161 189.947 382.537 190.835C381.913 191.723 381.025 192.419 379.873 192.923C378.745 193.427 377.413 193.679 375.877 193.679ZM389.995 170.891C389.251 170.891 388.627 170.639 388.123 170.135C387.619 169.631 387.367 169.007 387.367 168.263C387.367 167.519 387.619 166.895 388.123 166.391C388.627 165.887 389.251 165.635 389.995 165.635C390.715 165.635 391.327 165.887 391.831 166.391C392.335 166.895 392.587 167.519 392.587 168.263C392.587 169.007 392.335 169.631 391.831 170.135C391.327 170.639 390.715 170.891 389.995 170.891ZM392.011 173.519V193.355H387.907V173.519H392.011ZM405.391 173.195C406.927 173.195 408.283 173.507 409.459 174.131C410.659 174.731 411.595 175.487 412.267 176.399V173.519H416.407V193.679C416.407 195.503 416.023 197.123 415.255 198.539C414.487 199.979 413.371 201.107 411.907 201.923C410.467 202.739 408.739 203.147 406.723 203.147C404.035 203.147 401.803 202.511 400.027 201.239C398.251 199.991 397.243 198.287 397.003 196.127H401.071C401.383 197.159 402.043 197.987 403.051 198.611C404.083 199.259 405.307 199.583 406.723 199.583C408.379 199.583 409.711 199.079 410.719 198.071C411.751 197.063 412.267 195.599 412.267 193.679V190.367C411.571 191.303 410.623 192.095 409.423 192.743C408.247 193.367 406.903 193.679 405.391 193.679C403.663 193.679 402.079 193.247 400.639 192.383C399.223 191.495 398.095 190.271 397.255 188.711C396.439 187.127 396.031 185.339 396.031 183.347C396.031 181.355 396.439 179.591 397.255 178.055C398.095 176.519 399.223 175.331 400.639 174.491C402.079 173.627 403.663 173.195 405.391 173.195ZM412.267 183.419C412.267 182.051 411.979 180.863 411.403 179.855C410.851 178.847 410.119 178.079 409.207 177.551C408.295 177.023 407.311 176.759 406.255 176.759C405.199 176.759 404.215 177.023 403.303 177.551C402.391 178.055 401.647 178.811 401.071 179.819C400.519 180.803 400.243 181.979 400.243 183.347C400.243 184.715 400.519 185.915 401.071 186.947C401.647 187.979 402.391 188.771 403.303 189.323C404.239 189.851 405.223 190.115 406.255 190.115C407.311 190.115 408.295 189.851 409.207 189.323C410.119 188.795 410.851 188.027 411.403 187.019C411.979 185.987 412.267 184.787 412.267 183.419ZM431.806 173.195C433.366 173.195 434.758 173.519 435.982 174.167C437.23 174.815 438.202 175.775 438.898 177.047C439.594 178.319 439.942 179.855 439.942 181.655V193.355H435.874V182.267C435.874 180.491 435.43 179.135 434.542 178.199C433.654 177.239 432.442 176.759 430.906 176.759C429.37 176.759 428.146 177.239 427.234 178.199C426.346 179.135 425.902 180.491 425.902 182.267V193.355H421.798V173.519H425.902V175.787C426.574 174.971 427.426 174.335 428.458 173.879C429.514 173.423 430.63 173.195 431.806 173.195ZM463.357 182.951C463.357 183.695 463.309 184.367 463.213 184.967H448.057C448.177 186.551 448.765 187.823 449.821 188.783C450.877 189.743 452.173 190.223 453.709 190.223C455.917 190.223 457.477 189.299 458.389 187.451H462.817C462.217 189.275 461.125 190.775 459.541 191.951C457.981 193.103 456.037 193.679 453.709 193.679C451.813 193.679 450.109 193.259 448.597 192.419C447.109 191.555 445.933 190.355 445.069 188.819C444.229 187.259 443.809 185.459 443.809 183.419C443.809 181.379 444.217 179.591 445.033 178.055C445.873 176.495 447.037 175.295 448.525 174.455C450.037 173.615 451.765 173.195 453.709 173.195C455.581 173.195 457.249 173.603 458.713 174.419C460.177 175.235 461.317 176.387 462.133 177.875C462.949 179.339 463.357 181.031 463.357 182.951ZM459.073 181.655C459.049 180.143 458.509 178.931 457.453 178.019C456.397 177.107 455.089 176.651 453.529 176.651C452.113 176.651 450.901 177.107 449.893 178.019C448.885 178.907 448.285 180.119 448.093 181.655H459.073ZM471.499 176.399C472.099 175.391 472.891 174.611 473.875 174.059C474.883 173.483 476.071 173.195 477.439 173.195V177.443H476.395C474.787 177.443 473.563 177.851 472.723 178.667C471.907 179.483 471.499 180.899 471.499 182.915V193.355H467.395V173.519H471.499V176.399ZM482.868 193.607C482.124 193.607 481.5 193.355 480.996 192.851C480.492 192.347 480.24 191.723 480.24 190.979C480.24 190.235 480.492 189.611 480.996 189.107C481.5 188.603 482.124 188.351 482.868 188.351C483.588 188.351 484.2 188.603 484.704 189.107C485.208 189.611 485.46 190.235 485.46 190.979C485.46 191.723 485.208 192.347 484.704 192.851C484.2 193.355 483.588 193.607 482.868 193.607Z" fill="white"/>
<path d="M694.36 300.76L687.768 323H683.64L678.968 306.168L674.008 323L669.912 323.032L663.608 300.76H667.48L672.088 318.872L677.08 300.76H681.176L685.816 318.776L690.456 300.76H694.36ZM713.529 313.752C713.529 314.413 713.486 315.011 713.401 315.544H699.929C700.035 316.952 700.558 318.083 701.497 318.936C702.435 319.789 703.587 320.216 704.953 320.216C706.915 320.216 708.302 319.395 709.113 317.752H713.049C712.515 319.373 711.545 320.707 710.137 321.752C708.75 322.776 707.022 323.288 704.953 323.288C703.267 323.288 701.753 322.915 700.409 322.168C699.086 321.4 698.041 320.333 697.273 318.968C696.526 317.581 696.153 315.981 696.153 314.168C696.153 312.355 696.515 310.765 697.241 309.4C697.987 308.013 699.022 306.947 700.345 306.2C701.689 305.453 703.225 305.08 704.953 305.08C706.617 305.08 708.099 305.443 709.401 306.168C710.702 306.893 711.715 307.917 712.441 309.24C713.166 310.541 713.529 312.045 713.529 313.752ZM709.721 312.6C709.699 311.256 709.219 310.179 708.281 309.368C707.342 308.557 706.179 308.152 704.793 308.152C703.534 308.152 702.457 308.557 701.561 309.368C700.665 310.157 700.131 311.235 699.961 312.6H709.721ZM720.767 299.32V323H717.119V299.32H720.767ZM724.34 314.168C724.34 312.355 724.703 310.765 725.428 309.4C726.175 308.013 727.199 306.947 728.5 306.2C729.802 305.453 731.295 305.08 732.98 305.08C735.114 305.08 736.874 305.592 738.26 306.616C739.668 307.619 740.618 309.059 741.108 310.936H737.172C736.852 310.061 736.34 309.379 735.636 308.888C734.932 308.397 734.047 308.152 732.98 308.152C731.487 308.152 730.292 308.685 729.396 309.752C728.522 310.797 728.084 312.269 728.084 314.168C728.084 316.067 728.522 317.549 729.396 318.616C730.292 319.683 731.487 320.216 732.98 320.216C735.092 320.216 736.49 319.288 737.172 317.432H741.108C740.596 319.224 739.636 320.653 738.228 321.72C736.82 322.765 735.071 323.288 732.98 323.288C731.295 323.288 729.802 322.915 728.5 322.168C727.199 321.4 726.175 320.333 725.428 318.968C724.703 317.581 724.34 315.981 724.34 314.168ZM752.392 323.288C750.728 323.288 749.224 322.915 747.88 322.168C746.536 321.4 745.48 320.333 744.712 318.968C743.944 317.581 743.56 315.981 743.56 314.168C743.56 312.376 743.954 310.787 744.744 309.4C745.533 308.013 746.61 306.947 747.976 306.2C749.341 305.453 750.866 305.08 752.552 305.08C754.237 305.08 755.762 305.453 757.128 306.2C758.493 306.947 759.57 308.013 760.36 309.4C761.149 310.787 761.544 312.376 761.544 314.168C761.544 315.96 761.138 317.549 760.328 318.936C759.517 320.323 758.408 321.4 757 322.168C755.613 322.915 754.077 323.288 752.392 323.288ZM752.392 320.12C753.33 320.12 754.205 319.896 755.016 319.448C755.848 319 756.52 318.328 757.032 317.432C757.544 316.536 757.8 315.448 757.8 314.168C757.8 312.888 757.554 311.811 757.064 310.936C756.573 310.04 755.922 309.368 755.112 308.92C754.301 308.472 753.426 308.248 752.488 308.248C751.549 308.248 750.674 308.472 749.864 308.92C749.074 309.368 748.445 310.04 747.976 310.936C747.506 311.811 747.272 312.888 747.272 314.168C747.272 316.067 747.752 317.539 748.712 318.584C749.693 319.608 750.92 320.12 752.392 320.12ZM786.494 305.08C787.881 305.08 789.118 305.368 790.206 305.944C791.315 306.52 792.179 307.373 792.798 308.504C793.438 309.635 793.758 311 793.758 312.6V323H790.142V313.144C790.142 311.565 789.747 310.36 788.958 309.528C788.169 308.675 787.091 308.248 785.726 308.248C784.361 308.248 783.273 308.675 782.462 309.528C781.673 310.36 781.278 311.565 781.278 313.144V323H777.662V313.144C777.662 311.565 777.267 310.36 776.478 309.528C775.689 308.675 774.611 308.248 773.246 308.248C771.881 308.248 770.793 308.675 769.982 309.528C769.193 310.36 768.798 311.565 768.798 313.144V323H765.15V305.368H768.798V307.384C769.395 306.659 770.153 306.093 771.07 305.688C771.987 305.283 772.969 305.08 774.014 305.08C775.422 305.08 776.681 305.379 777.79 305.976C778.899 306.573 779.753 307.437 780.35 308.568C780.883 307.501 781.715 306.659 782.846 306.04C783.977 305.4 785.193 305.08 786.494 305.08ZM814.56 313.752C814.56 314.413 814.517 315.011 814.432 315.544H800.96C801.067 316.952 801.589 318.083 802.528 318.936C803.467 319.789 804.619 320.216 805.984 320.216C807.947 320.216 809.333 319.395 810.144 317.752H814.08C813.547 319.373 812.576 320.707 811.168 321.752C809.781 322.776 808.053 323.288 805.984 323.288C804.299 323.288 802.784 322.915 801.44 322.168C800.117 321.4 799.072 320.333 798.304 318.968C797.557 317.581 797.184 315.981 797.184 314.168C797.184 312.355 797.547 310.765 798.272 309.4C799.019 308.013 800.053 306.947 801.376 306.2C802.72 305.453 804.256 305.08 805.984 305.08C807.648 305.08 809.131 305.443 810.432 306.168C811.733 306.893 812.747 307.917 813.472 309.24C814.197 310.541 814.56 312.045 814.56 313.752ZM810.752 312.6C810.731 311.256 810.251 310.179 809.312 309.368C808.373 308.557 807.211 308.152 805.824 308.152C804.565 308.152 803.488 308.557 802.592 309.368C801.696 310.157 801.163 311.235 800.992 312.6H810.752ZM830.719 308.344V318.104C830.719 318.765 830.868 319.245 831.167 319.544C831.487 319.821 832.02 319.96 832.767 319.96H835.007V323H832.127C830.484 323 829.225 322.616 828.351 321.848C827.476 321.08 827.039 319.832 827.039 318.104V308.344H824.959V305.368H827.039V300.984H830.719V305.368H835.007V308.344H830.719ZM846.017 323.288C844.353 323.288 842.849 322.915 841.505 322.168C840.161 321.4 839.105 320.333 838.337 318.968C837.569 317.581 837.185 315.981 837.185 314.168C837.185 312.376 837.579 310.787 838.369 309.4C839.158 308.013 840.235 306.947 841.601 306.2C842.966 305.453 844.491 305.08 846.177 305.08C847.862 305.08 849.387 305.453 850.753 306.2C852.118 306.947 853.195 308.013 853.985 309.4C854.774 310.787 855.169 312.376 855.169 314.168C855.169 315.96 854.763 317.549 853.953 318.936C853.142 320.323 852.033 321.4 850.625 322.168C849.238 322.915 847.702 323.288 846.017 323.288ZM846.017 320.12C846.955 320.12 847.83 319.896 848.641 319.448C849.473 319 850.145 318.328 850.657 317.432C851.169 316.536 851.425 315.448 851.425 314.168C851.425 312.888 851.179 311.811 850.689 310.936C850.198 310.04 849.547 309.368 848.737 308.92C847.926 308.472 847.051 308.248 846.113 308.248C845.174 308.248 844.299 308.472 843.489 308.92C842.699 309.368 842.07 310.04 841.601 310.936C841.131 311.811 840.897 312.888 840.897 314.168C840.897 316.067 841.377 317.539 842.337 318.584C843.318 319.608 844.545 320.12 846.017 320.12ZM686.744 353.08C688.131 353.08 689.368 353.368 690.456 353.944C691.565 354.52 692.429 355.373 693.048 356.504C693.688 357.635 694.008 359 694.008 360.6V371H690.392V361.144C690.392 359.565 689.997 358.36 689.208 357.528C688.419 356.675 687.341 356.248 685.976 356.248C684.611 356.248 683.523 356.675 682.712 357.528C681.923 358.36 681.528 359.565 681.528 361.144V371H677.912V361.144C677.912 359.565 677.517 358.36 676.728 357.528C675.939 356.675 674.861 356.248 673.496 356.248C672.131 356.248 671.043 356.675 670.232 357.528C669.443 358.36 669.048 359.565 669.048 361.144V371H665.4V353.368H669.048V355.384C669.645 354.659 670.403 354.093 671.32 353.688C672.237 353.283 673.219 353.08 674.264 353.08C675.672 353.08 676.931 353.379 678.04 353.976C679.149 354.573 680.003 355.437 680.6 356.568C681.133 355.501 681.965 354.659 683.096 354.04C684.227 353.4 685.443 353.08 686.744 353.08ZM714.522 353.368L703.706 379.288H699.93L703.514 370.712L696.57 353.368H700.634L705.594 366.808L710.746 353.368H714.522ZM749.268 353.368L743.796 371H739.956L736.404 357.976L732.852 371H729.012L723.508 353.368H727.22L730.9 367.544L734.644 353.368H738.452L742.036 367.48L745.684 353.368H749.268ZM768.154 361.752C768.154 362.413 768.111 363.011 768.026 363.544H754.554C754.66 364.952 755.183 366.083 756.122 366.936C757.06 367.789 758.212 368.216 759.578 368.216C761.54 368.216 762.927 367.395 763.738 365.752H767.674C767.14 367.373 766.17 368.707 764.762 369.752C763.375 370.776 761.647 371.288 759.578 371.288C757.892 371.288 756.378 370.915 755.034 370.168C753.711 369.4 752.666 368.333 751.898 366.968C751.151 365.581 750.778 363.981 750.778 362.168C750.778 360.355 751.14 358.765 751.866 357.4C752.612 356.013 753.647 354.947 754.97 354.2C756.314 353.453 757.85 353.08 759.578 353.08C761.242 353.08 762.724 353.443 764.026 354.168C765.327 354.893 766.34 355.917 767.066 357.24C767.791 358.541 768.154 360.045 768.154 361.752ZM764.346 360.6C764.324 359.256 763.844 358.179 762.906 357.368C761.967 356.557 760.804 356.152 759.418 356.152C758.159 356.152 757.082 356.557 756.186 357.368C755.29 358.157 754.756 359.235 754.586 360.6H764.346ZM775.392 355.992C776.01 355.139 776.853 354.445 777.92 353.912C779.008 353.357 780.213 353.08 781.536 353.08C783.093 353.08 784.501 353.453 785.76 354.2C787.018 354.947 788.01 356.013 788.736 357.4C789.461 358.765 789.824 360.333 789.824 362.104C789.824 363.875 789.461 365.464 788.736 366.872C788.01 368.259 787.008 369.347 785.728 370.136C784.469 370.904 783.072 371.288 781.536 371.288C780.17 371.288 778.954 371.021 777.888 370.488C776.842 369.955 776.01 369.272 775.392 368.44V371H771.744V347.32H775.392V355.992ZM786.112 362.104C786.112 360.888 785.856 359.843 785.344 358.968C784.853 358.072 784.192 357.4 783.36 356.952C782.549 356.483 781.674 356.248 780.736 356.248C779.818 356.248 778.944 356.483 778.112 356.952C777.301 357.421 776.64 358.104 776.128 359C775.637 359.896 775.392 360.952 775.392 362.168C775.392 363.384 775.637 364.451 776.128 365.368C776.64 366.264 777.301 366.947 778.112 367.416C778.944 367.885 779.818 368.12 780.736 368.12C781.674 368.12 782.549 367.885 783.36 367.416C784.192 366.925 784.853 366.221 785.344 365.304C785.856 364.387 786.112 363.32 786.112 362.104ZM799.831 371.288C798.445 371.288 797.197 371.043 796.087 370.552C794.999 370.04 794.135 369.357 793.495 368.504C792.855 367.629 792.514 366.659 792.471 365.592H796.247C796.311 366.339 796.663 366.968 797.303 367.48C797.965 367.971 798.786 368.216 799.767 368.216C800.791 368.216 801.581 368.024 802.135 367.64C802.711 367.235 802.999 366.723 802.999 366.104C802.999 365.443 802.679 364.952 802.039 364.632C801.421 364.312 800.429 363.96 799.063 363.576C797.741 363.213 796.663 362.861 795.831 362.52C794.999 362.179 794.274 361.656 793.655 360.952C793.058 360.248 792.759 359.32 792.759 358.168C792.759 357.229 793.037 356.376 793.591 355.608C794.146 354.819 794.935 354.2 795.959 353.752C797.005 353.304 798.199 353.08 799.543 353.08C801.549 353.08 803.159 353.592 804.375 354.616C805.613 355.619 806.274 356.995 806.359 358.744H802.711C802.647 357.955 802.327 357.325 801.751 356.856C801.175 356.387 800.397 356.152 799.415 356.152C798.455 356.152 797.719 356.333 797.207 356.696C796.695 357.059 796.439 357.539 796.439 358.136C796.439 358.605 796.61 359 796.951 359.32C797.293 359.64 797.709 359.896 798.199 360.088C798.69 360.259 799.415 360.483 800.375 360.76C801.655 361.101 802.701 361.453 803.511 361.816C804.343 362.157 805.058 362.669 805.655 363.352C806.253 364.035 806.562 364.941 806.583 366.072C806.583 367.075 806.306 367.971 805.751 368.76C805.197 369.549 804.407 370.168 803.383 370.616C802.381 371.064 801.197 371.288 799.831 371.288ZM812.381 351.032C811.72 351.032 811.165 350.808 810.717 350.36C810.269 349.912 810.045 349.357 810.045 348.696C810.045 348.035 810.269 347.48 810.717 347.032C811.165 346.584 811.72 346.36 812.381 346.36C813.021 346.36 813.565 346.584 814.013 347.032C814.461 347.48 814.685 348.035 814.685 348.696C814.685 349.357 814.461 349.912 814.013 350.36C813.565 350.808 813.021 351.032 812.381 351.032ZM814.173 353.368V371H810.525V353.368H814.173ZM823.219 356.344V366.104C823.219 366.765 823.368 367.245 823.667 367.544C823.987 367.821 824.52 367.96 825.267 367.96H827.507V371H824.627C822.984 371 821.725 370.616 820.851 369.848C819.976 369.08 819.539 367.832 819.539 366.104V356.344H817.459V353.368H819.539V348.984H823.219V353.368H827.507V356.344H823.219ZM847.029 361.752C847.029 362.413 846.986 363.011 846.901 363.544H833.429C833.535 364.952 834.058 366.083 834.997 366.936C835.935 367.789 837.087 368.216 838.453 368.216C840.415 368.216 841.802 367.395 842.613 365.752H846.549C846.015 367.373 845.045 368.707 843.637 369.752C842.25 370.776 840.522 371.288 838.453 371.288C836.767 371.288 835.253 370.915 833.909 370.168C832.586 369.4 831.541 368.333 830.773 366.968C830.026 365.581 829.653 363.981 829.653 362.168C829.653 360.355 830.015 358.765 830.741 357.4C831.487 356.013 832.522 354.947 833.845 354.2C835.189 353.453 836.725 353.08 838.453 353.08C840.117 353.08 841.599 353.443 842.901 354.168C844.202 354.893 845.215 355.917 845.941 357.24C846.666 358.541 847.029 360.045 847.029 361.752ZM843.221 360.6C843.199 359.256 842.719 358.179 841.781 357.368C840.842 356.557 839.679 356.152 838.293 356.152C837.034 356.152 835.957 356.557 835.061 357.368C834.165 358.157 833.631 359.235 833.461 360.6H843.221ZM852.091 371.224C851.429 371.224 850.875 371 850.427 370.552C849.979 370.104 849.755 369.549 849.755 368.888C849.755 368.227 849.979 367.672 850.427 367.224C850.875 366.776 851.429 366.552 852.091 366.552C852.731 366.552 853.275 366.776 853.723 367.224C854.171 367.672 854.395 368.227 854.395 368.888C854.395 369.549 854.171 370.104 853.723 370.552C853.275 371 852.731 371.224 852.091 371.224Z" fill="white"/>
</g>
<defs>
<clipPath id="clip0_181_1365">
<rect width="1024" height="492" fill="white"/>
</clipPath>
</defs>
</svg>
