<svg width="1440" height="542" viewBox="0 0 1440 542" fill="none" xmlns="http://www.w3.org/2000/svg">
<g clip-path="url(#clip0_177_1600)">
<path d="M1547.57 70.1167C1545.85 67.4164 1543.95 64.7158 1541.88 62.0156C1476.95 -19.1997 1579.64 13.083 1467 53.1714C1354.36 93.2597 1053.44 12.1742 916 -41C862.436 -61.7712 749.286 15.0736 694.861 -4.65904C574.3 -48.1746 464.433 -61.112 353 -21.6468C134 -4.65905 127.837 -36.8131 40 -49.6912C-22.0029 -58.7267 -83.7957 -27.5071 -100.846 37.0912C-114.939 90.3393 -123.452 144.07 -126.336 197.964C-132.02 301.82 -365.178 266.903 -229.805 306.16C-132.667 334.305 290.802 411.699 390.868 385.943C461.654 367.768 533.129 344.4 609.082 346.893C736.36 350.528 818.522 424.058 939.599 440.363C1014.69 450.749 1088.92 436.624 1161.94 426.343C1241.69 415.126 1313.51 423.02 1390.84 417.411C1532.93 407.026 1486.08 306.492 1506.24 238.571C1521.39 184.669 1582.02 124.953 1547.57 70.1167Z" fill="#ECC889"/>
<path fill-rule="evenodd" clip-rule="evenodd" d="M1104.71 539.932C1042.82 542.393 980.643 527.382 936.415 495.627C891.823 463.61 871.444 418.258 871.595 372.557C871.745 326.974 889.701 295.049 936.415 264.869C981.042 236.038 1045.28 201.559 1104.71 204.351C1159.53 206.927 1232.32 248.597 1273.23 275.401C1316.81 303.952 1333.86 329.773 1334.58 372.557C1335.31 415.717 1297.47 452.476 1255.64 482.93C1213.93 513.302 1163.49 537.594 1104.71 539.932Z" fill="#5F9BAB" stroke="white" stroke-width="20"/>
<path d="M143.36 95.4955V144.355H133.56V123.565H112.63V144.355H102.83V95.4955H112.63V115.585H133.56V95.4955H143.36ZM157.976 100.955C156.249 100.955 154.802 100.419 153.636 99.3455C152.516 98.2255 151.956 96.8488 151.956 95.2155C151.956 93.5821 152.516 92.2288 153.636 91.1555C154.802 90.0355 156.249 89.4755 157.976 89.4755C159.702 89.4755 161.126 90.0355 162.246 91.1555C163.412 92.2288 163.996 93.5821 163.996 95.2155C163.996 96.8488 163.412 98.2255 162.246 99.3455C161.126 100.419 159.702 100.955 157.976 100.955ZM162.806 105.575V144.355H153.006V105.575H162.806ZM183.198 134.065L175.008 153.735H168.708L173.258 134.065H183.198ZM216.741 95.4955V144.355H206.941V95.4955H216.741ZM228.384 95.4955H238.674L231.114 113.135H224.394L228.384 95.4955ZM293.861 105.015C298.621 105.015 302.448 106.485 305.341 109.425C308.281 112.319 309.751 116.379 309.751 121.605V144.355H299.951V122.935C299.951 119.902 299.181 117.592 297.641 116.005C296.101 114.372 294.001 113.555 291.341 113.555C288.681 113.555 286.558 114.372 284.971 116.005C283.431 117.592 282.661 119.902 282.661 122.935V144.355H272.861V122.935C272.861 119.902 272.091 117.592 270.551 116.005C269.011 114.372 266.911 113.555 264.251 113.555C261.544 113.555 259.398 114.372 257.811 116.005C256.271 117.592 255.501 119.902 255.501 122.935V144.355H245.701V105.575H255.501V110.265C256.761 108.632 258.371 107.349 260.331 106.415C262.338 105.482 264.531 105.015 266.911 105.015C269.944 105.015 272.651 105.669 275.031 106.975C277.411 108.235 279.254 110.055 280.561 112.435C281.821 110.195 283.641 108.399 286.021 107.045C288.448 105.692 291.061 105.015 293.861 105.015ZM365.69 135.045H346.23L343.01 144.355H332.72L350.29 95.4255H361.7L379.27 144.355H368.91L365.69 135.045ZM363.03 127.205L355.96 106.765L348.89 127.205H363.03ZM395.638 92.5555V144.355H385.838V92.5555H395.638ZM441.37 124.125C441.37 125.525 441.277 126.785 441.09 127.905H412.74C412.974 130.705 413.954 132.899 415.68 134.485C417.407 136.072 419.53 136.865 422.05 136.865C425.69 136.865 428.28 135.302 429.82 132.175H440.39C439.27 135.909 437.124 138.989 433.95 141.415C430.777 143.795 426.88 144.985 422.26 144.985C418.527 144.985 415.167 144.169 412.18 142.535C409.24 140.855 406.93 138.499 405.25 135.465C403.617 132.432 402.8 128.932 402.8 124.965C402.8 120.952 403.617 117.429 405.25 114.395C406.884 111.362 409.17 109.029 412.11 107.395C415.05 105.762 418.434 104.945 422.26 104.945C425.947 104.945 429.237 105.739 432.13 107.325C435.07 108.912 437.334 111.175 438.92 114.115C440.554 117.009 441.37 120.345 441.37 124.125ZM431.22 121.325C431.174 118.805 430.264 116.799 428.49 115.305C426.717 113.765 424.547 112.995 421.98 112.995C419.554 112.995 417.5 113.742 415.82 115.235C414.187 116.682 413.184 118.712 412.81 121.325H431.22ZM469.943 144.355L461.963 132.315L454.893 144.355H444.393L457.063 124.895L444.253 105.575H455.313L463.223 117.545L470.363 105.575H480.863L468.123 124.895L481.003 144.355H469.943ZM490.666 144.845C488.893 144.845 487.423 144.309 486.256 143.235C485.136 142.115 484.576 140.739 484.576 139.105C484.576 137.472 485.136 136.119 486.256 135.045C487.423 133.925 488.893 133.365 490.666 133.365C492.393 133.365 493.816 133.925 494.936 135.045C496.056 136.119 496.616 137.472 496.616 139.105C496.616 140.739 496.056 142.115 494.936 143.235C493.816 144.309 492.393 144.845 490.666 144.845Z" fill="#011E39"/>
<path d="M105.56 189.555V217.355H101V189.555H105.56ZM112.267 189.555H117.227L113.027 199.075H109.827L112.267 189.555ZM147.914 194.955C149.648 194.955 151.194 195.315 152.554 196.035C153.941 196.755 155.021 197.822 155.794 199.235C156.594 200.649 156.994 202.355 156.994 204.355V217.355H152.474V205.035C152.474 203.062 151.981 201.555 150.994 200.515C150.008 199.449 148.661 198.915 146.954 198.915C145.248 198.915 143.888 199.449 142.874 200.515C141.888 201.555 141.394 203.062 141.394 205.035V217.355H136.874V205.035C136.874 203.062 136.381 201.555 135.394 200.515C134.408 199.449 133.061 198.915 131.354 198.915C129.648 198.915 128.288 199.449 127.274 200.515C126.288 201.555 125.794 203.062 125.794 205.035V217.355H121.234V195.315H125.794V197.835C126.541 196.929 127.488 196.222 128.634 195.715C129.781 195.209 131.008 194.955 132.314 194.955C134.074 194.955 135.648 195.329 137.034 196.075C138.421 196.822 139.488 197.902 140.234 199.315C140.901 197.982 141.941 196.929 143.354 196.155C144.768 195.355 146.288 194.955 147.914 194.955ZM171.668 206.235C171.668 204.022 172.121 202.062 173.028 200.355C173.961 198.649 175.214 197.329 176.788 196.395C178.388 195.435 180.148 194.955 182.068 194.955C183.801 194.955 185.308 195.302 186.588 195.995C187.894 196.662 188.934 197.502 189.708 198.515V195.315H194.308V217.355H189.708V214.075C188.934 215.115 187.881 215.982 186.548 216.675C185.214 217.369 183.694 217.715 181.988 217.715C180.094 217.715 178.361 217.235 176.788 216.275C175.214 215.289 173.961 213.929 173.028 212.195C172.121 210.435 171.668 208.449 171.668 206.235ZM189.708 206.315C189.708 204.795 189.388 203.475 188.748 202.355C188.134 201.235 187.321 200.382 186.308 199.795C185.294 199.209 184.201 198.915 183.028 198.915C181.854 198.915 180.761 199.209 179.748 199.795C178.734 200.355 177.908 201.195 177.268 202.315C176.654 203.409 176.348 204.715 176.348 206.235C176.348 207.755 176.654 209.089 177.268 210.235C177.908 211.382 178.734 212.262 179.748 212.875C180.788 213.462 181.881 213.755 183.028 213.755C184.201 213.755 185.294 213.462 186.308 212.875C187.321 212.289 188.134 211.435 188.748 210.315C189.388 209.169 189.708 207.835 189.708 206.315ZM215.208 189.555V207.275C215.208 209.382 215.754 210.969 216.848 212.035C217.968 213.102 219.514 213.635 221.488 213.635C223.488 213.635 225.034 213.102 226.128 212.035C227.248 210.969 227.808 209.382 227.808 207.275V189.555H232.368V207.195C232.368 209.462 231.874 211.382 230.888 212.955C229.901 214.529 228.581 215.702 226.928 216.475C225.274 217.249 223.448 217.635 221.448 217.635C219.448 217.635 217.621 217.249 215.968 216.475C214.341 215.702 213.048 214.529 212.088 212.955C211.128 211.382 210.648 209.462 210.648 207.195V189.555H215.208ZM242.865 189.555V217.355H238.305V189.555H242.865ZM274.042 179.595L263.162 224.355H258.682L269.522 179.595H274.042ZM294.7 189.555V207.275C294.7 209.382 295.246 210.969 296.34 212.035C297.46 213.102 299.006 213.635 300.98 213.635C302.98 213.635 304.526 213.102 305.62 212.035C306.74 210.969 307.3 209.382 307.3 207.275V189.555H311.86V207.195C311.86 209.462 311.366 211.382 310.38 212.955C309.393 214.529 308.073 215.702 306.42 216.475C304.766 217.249 302.94 217.635 300.94 217.635C298.94 217.635 297.113 217.249 295.46 216.475C293.833 215.702 292.54 214.529 291.58 212.955C290.62 211.382 290.14 209.462 290.14 207.195V189.555H294.7ZM330.557 203.475L339.197 217.355H334.077L327.797 207.275L321.917 217.355H316.837L325.477 203.475L316.797 189.555H321.917L328.237 199.715L334.157 189.555H339.237L330.557 203.475ZM363.674 189.555C366.634 189.555 369.22 190.129 371.434 191.275C373.674 192.395 375.394 194.022 376.594 196.155C377.82 198.262 378.434 200.729 378.434 203.555C378.434 206.382 377.82 208.835 376.594 210.915C375.394 212.995 373.674 214.595 371.434 215.715C369.22 216.809 366.634 217.355 363.674 217.355H354.594V189.555H363.674ZM363.674 213.635C366.927 213.635 369.42 212.755 371.154 210.995C372.887 209.235 373.754 206.755 373.754 203.555C373.754 200.329 372.887 197.809 371.154 195.995C369.42 194.182 366.927 193.275 363.674 193.275H359.154V213.635H363.674ZM403.153 205.795C403.153 206.622 403.1 207.369 402.993 208.035H386.153C386.286 209.795 386.94 211.209 388.113 212.275C389.286 213.342 390.726 213.875 392.433 213.875C394.886 213.875 396.62 212.849 397.633 210.795H402.553C401.886 212.822 400.673 214.489 398.913 215.795C397.18 217.075 395.02 217.715 392.433 217.715C390.326 217.715 388.433 217.249 386.753 216.315C385.1 215.355 383.793 214.022 382.833 212.315C381.9 210.582 381.433 208.582 381.433 206.315C381.433 204.049 381.886 202.062 382.793 200.355C383.726 198.622 385.02 197.289 386.673 196.355C388.353 195.422 390.273 194.955 392.433 194.955C394.513 194.955 396.366 195.409 397.993 196.315C399.62 197.222 400.886 198.502 401.793 200.155C402.7 201.782 403.153 203.662 403.153 205.795ZM398.393 204.355C398.366 202.675 397.766 201.329 396.593 200.315C395.42 199.302 393.966 198.795 392.233 198.795C390.66 198.795 389.313 199.302 388.193 200.315C387.073 201.302 386.406 202.649 386.193 204.355H398.393ZM415.641 217.715C413.907 217.715 412.347 217.409 410.961 216.795C409.601 216.155 408.521 215.302 407.721 214.235C406.921 213.142 406.494 211.929 406.441 210.595H411.161C411.241 211.529 411.681 212.315 412.481 212.955C413.307 213.569 414.334 213.875 415.561 213.875C416.841 213.875 417.827 213.635 418.521 213.155C419.241 212.649 419.601 212.009 419.601 211.235C419.601 210.409 419.201 209.795 418.401 209.395C417.627 208.995 416.387 208.555 414.681 208.075C413.027 207.622 411.681 207.182 410.641 206.755C409.601 206.329 408.694 205.675 407.921 204.795C407.174 203.915 406.801 202.755 406.801 201.315C406.801 200.142 407.147 199.075 407.841 198.115C408.534 197.129 409.521 196.355 410.801 195.795C412.107 195.235 413.601 194.955 415.281 194.955C417.787 194.955 419.801 195.595 421.321 196.875C422.867 198.129 423.694 199.849 423.801 202.035H419.241C419.161 201.049 418.761 200.262 418.041 199.675C417.321 199.089 416.347 198.795 415.121 198.795C413.921 198.795 413.001 199.022 412.361 199.475C411.721 199.929 411.401 200.529 411.401 201.275C411.401 201.862 411.614 202.355 412.041 202.755C412.467 203.155 412.987 203.475 413.601 203.715C414.214 203.929 415.121 204.209 416.321 204.555C417.921 204.982 419.227 205.422 420.241 205.875C421.281 206.302 422.174 206.942 422.921 207.795C423.667 208.649 424.054 209.782 424.081 211.195C424.081 212.449 423.734 213.569 423.041 214.555C422.347 215.542 421.361 216.315 420.081 216.875C418.827 217.435 417.347 217.715 415.641 217.715ZM431.328 192.395C430.501 192.395 429.808 192.115 429.248 191.555C428.688 190.995 428.408 190.302 428.408 189.475C428.408 188.649 428.688 187.955 429.248 187.395C429.808 186.835 430.501 186.555 431.328 186.555C432.128 186.555 432.808 186.835 433.368 187.395C433.928 187.955 434.208 188.649 434.208 189.475C434.208 190.302 433.928 190.995 433.368 191.555C432.808 192.115 432.128 192.395 431.328 192.395ZM433.568 195.315V217.355H429.008V195.315H433.568ZM448.435 194.955C450.141 194.955 451.648 195.302 452.955 195.995C454.288 196.662 455.328 197.502 456.075 198.515V195.315H460.675V217.715C460.675 219.742 460.248 221.542 459.395 223.115C458.541 224.715 457.301 225.969 455.675 226.875C454.075 227.782 452.155 228.235 449.915 228.235C446.928 228.235 444.448 227.529 442.475 226.115C440.501 224.729 439.381 222.835 439.115 220.435H443.635C443.981 221.582 444.715 222.502 445.835 223.195C446.981 223.915 448.341 224.275 449.915 224.275C451.755 224.275 453.235 223.715 454.355 222.595C455.501 221.475 456.075 219.849 456.075 217.715V214.035C455.301 215.075 454.248 215.955 452.915 216.675C451.608 217.369 450.115 217.715 448.435 217.715C446.515 217.715 444.755 217.235 443.155 216.275C441.581 215.289 440.328 213.929 439.395 212.195C438.488 210.435 438.035 208.449 438.035 206.235C438.035 204.022 438.488 202.062 439.395 200.355C440.328 198.649 441.581 197.329 443.155 196.395C444.755 195.435 446.515 194.955 448.435 194.955ZM456.075 206.315C456.075 204.795 455.755 203.475 455.115 202.355C454.501 201.235 453.688 200.382 452.675 199.795C451.661 199.209 450.568 198.915 449.395 198.915C448.221 198.915 447.128 199.209 446.115 199.795C445.101 200.355 444.275 201.195 443.635 202.315C443.021 203.409 442.715 204.715 442.715 206.235C442.715 207.755 443.021 209.089 443.635 210.235C444.275 211.382 445.101 212.262 446.115 212.875C447.155 213.462 448.248 213.755 449.395 213.755C450.568 213.755 451.661 213.462 452.675 212.875C453.688 212.289 454.501 211.435 455.115 210.315C455.755 209.169 456.075 207.835 456.075 206.315ZM477.784 194.955C479.517 194.955 481.064 195.315 482.424 196.035C483.811 196.755 484.891 197.822 485.664 199.235C486.437 200.649 486.824 202.355 486.824 204.355V217.355H482.304V205.035C482.304 203.062 481.811 201.555 480.824 200.515C479.837 199.449 478.491 198.915 476.784 198.915C475.077 198.915 473.717 199.449 472.704 200.515C471.717 201.555 471.224 203.062 471.224 205.035V217.355H466.664V195.315H471.224V197.835C471.971 196.929 472.917 196.222 474.064 195.715C475.237 195.209 476.477 194.955 477.784 194.955ZM512.841 205.795C512.841 206.622 512.787 207.369 512.681 208.035H495.841C495.974 209.795 496.627 211.209 497.801 212.275C498.974 213.342 500.414 213.875 502.121 213.875C504.574 213.875 506.307 212.849 507.321 210.795H512.241C511.574 212.822 510.361 214.489 508.601 215.795C506.867 217.075 504.707 217.715 502.121 217.715C500.014 217.715 498.121 217.249 496.441 216.315C494.787 215.355 493.481 214.022 492.521 212.315C491.587 210.582 491.121 208.582 491.121 206.315C491.121 204.049 491.574 202.062 492.481 200.355C493.414 198.622 494.707 197.289 496.361 196.355C498.041 195.422 499.961 194.955 502.121 194.955C504.201 194.955 506.054 195.409 507.681 196.315C509.307 197.222 510.574 198.502 511.481 200.155C512.387 201.782 512.841 203.662 512.841 205.795ZM508.081 204.355C508.054 202.675 507.454 201.329 506.281 200.315C505.107 199.302 503.654 198.795 501.921 198.795C500.347 198.795 499.001 199.302 497.881 200.315C496.761 201.302 496.094 202.649 495.881 204.355H508.081ZM521.888 198.515C522.555 197.395 523.435 196.529 524.528 195.915C525.648 195.275 526.968 194.955 528.488 194.955V199.675H527.328C525.541 199.675 524.181 200.129 523.248 201.035C522.341 201.942 521.888 203.515 521.888 205.755V217.355H517.328V195.315H521.888V198.515ZM534.52 217.635C533.693 217.635 533 217.355 532.44 216.795C531.88 216.235 531.6 215.542 531.6 214.715C531.6 213.889 531.88 213.195 532.44 212.635C533 212.075 533.693 211.795 534.52 211.795C535.32 211.795 536 212.075 536.56 212.635C537.12 213.195 537.4 213.889 537.4 214.715C537.4 215.542 537.12 216.235 536.56 216.795C536 217.355 535.32 217.635 534.52 217.635Z" fill="white"/>
<path d="M1020.24 330.59L1012.41 357H1007.51L1001.96 337.012L996.072 357L991.208 357.038L983.722 330.59H988.32L993.792 352.098L999.72 330.59H1004.58L1010.09 351.984L1015.6 330.59H1020.24ZM1043 346.018C1043 346.803 1042.95 347.513 1042.85 348.146H1026.85C1026.98 349.818 1027.6 351.161 1028.71 352.174C1029.83 353.187 1031.2 353.694 1032.82 353.694C1035.15 353.694 1036.8 352.719 1037.76 350.768H1042.43C1041.8 352.693 1040.65 354.277 1038.97 355.518C1037.33 356.734 1035.28 357.342 1032.82 357.342C1030.82 357.342 1029.02 356.899 1027.42 356.012C1025.85 355.1 1024.61 353.833 1023.7 352.212C1022.81 350.565 1022.37 348.665 1022.37 346.512C1022.37 344.359 1022.8 342.471 1023.66 340.85C1024.55 339.203 1025.78 337.937 1027.35 337.05C1028.94 336.163 1030.77 335.72 1032.82 335.72C1034.79 335.72 1036.56 336.151 1038.1 337.012C1039.65 337.873 1040.85 339.089 1041.71 340.66C1042.57 342.205 1043 343.991 1043 346.018ZM1038.48 344.65C1038.46 343.054 1037.89 341.775 1036.77 340.812C1035.66 339.849 1034.28 339.368 1032.63 339.368C1031.13 339.368 1029.85 339.849 1028.79 340.812C1027.73 341.749 1027.09 343.029 1026.89 344.65H1038.48ZM1051.6 328.88V357H1047.27V328.88H1051.6ZM1055.84 346.512C1055.84 344.359 1056.27 342.471 1057.13 340.85C1058.02 339.203 1059.24 337.937 1060.78 337.05C1062.33 336.163 1064.1 335.72 1066.1 335.72C1068.63 335.72 1070.72 336.328 1072.37 337.544C1074.04 338.735 1075.17 340.445 1075.75 342.674H1071.08C1070.7 341.635 1070.09 340.825 1069.26 340.242C1068.42 339.659 1067.37 339.368 1066.1 339.368C1064.33 339.368 1062.91 340.001 1061.85 341.268C1060.81 342.509 1060.29 344.257 1060.29 346.512C1060.29 348.767 1060.81 350.527 1061.85 351.794C1062.91 353.061 1064.33 353.694 1066.1 353.694C1068.61 353.694 1070.27 352.592 1071.08 350.388H1075.75C1075.15 352.516 1074.01 354.213 1072.33 355.48C1070.66 356.721 1068.58 357.342 1066.1 357.342C1064.1 357.342 1062.33 356.899 1060.78 356.012C1059.24 355.1 1058.02 353.833 1057.13 352.212C1056.27 350.565 1055.84 348.665 1055.84 346.512ZM1089.15 357.342C1087.18 357.342 1085.39 356.899 1083.79 356.012C1082.2 355.1 1080.94 353.833 1080.03 352.212C1079.12 350.565 1078.66 348.665 1078.66 346.512C1078.66 344.384 1079.13 342.497 1080.07 340.85C1081.01 339.203 1082.29 337.937 1083.91 337.05C1085.53 336.163 1087.34 335.72 1089.34 335.72C1091.34 335.72 1093.16 336.163 1094.78 337.05C1096.4 337.937 1097.68 339.203 1098.61 340.85C1099.55 342.497 1100.02 344.384 1100.02 346.512C1100.02 348.64 1099.54 350.527 1098.58 352.174C1097.61 353.821 1096.3 355.1 1094.62 356.012C1092.98 356.899 1091.15 357.342 1089.15 357.342ZM1089.15 353.58C1090.27 353.58 1091.31 353.314 1092.27 352.782C1093.26 352.25 1094.05 351.452 1094.66 350.388C1095.27 349.324 1095.57 348.032 1095.57 346.512C1095.57 344.992 1095.28 343.713 1094.7 342.674C1094.12 341.61 1093.35 340.812 1092.38 340.28C1091.42 339.748 1090.38 339.482 1089.27 339.482C1088.15 339.482 1087.11 339.748 1086.15 340.28C1085.21 340.812 1084.47 341.61 1083.91 342.674C1083.35 343.713 1083.07 344.992 1083.07 346.512C1083.07 348.767 1083.64 350.515 1084.78 351.756C1085.95 352.972 1087.4 353.58 1089.15 353.58ZM1129.65 335.72C1131.3 335.72 1132.77 336.062 1134.06 336.746C1135.37 337.43 1136.4 338.443 1137.14 339.786C1137.9 341.129 1138.28 342.75 1138.28 344.65V357H1133.98V345.296C1133.98 343.421 1133.51 341.99 1132.58 341.002C1131.64 339.989 1130.36 339.482 1128.74 339.482C1127.12 339.482 1125.82 339.989 1124.86 341.002C1123.92 341.99 1123.46 343.421 1123.46 345.296V357H1119.16V345.296C1119.16 343.421 1118.69 341.99 1117.76 341.002C1116.82 339.989 1115.54 339.482 1113.92 339.482C1112.3 339.482 1111 339.989 1110.04 341.002C1109.1 341.99 1108.64 343.421 1108.64 345.296V357H1104.3V336.062H1108.64V338.456C1109.34 337.595 1110.24 336.923 1111.33 336.442C1112.42 335.961 1113.59 335.72 1114.83 335.72C1116.5 335.72 1118 336.075 1119.31 336.784C1120.63 337.493 1121.64 338.519 1122.35 339.862C1122.99 338.595 1123.97 337.595 1125.32 336.86C1126.66 336.1 1128.1 335.72 1129.65 335.72ZM1162.98 346.018C1162.98 346.803 1162.93 347.513 1162.83 348.146H1146.83C1146.95 349.818 1147.57 351.161 1148.69 352.174C1149.8 353.187 1151.17 353.694 1152.79 353.694C1155.12 353.694 1156.77 352.719 1157.73 350.768H1162.41C1161.77 352.693 1160.62 354.277 1158.95 355.518C1157.3 356.734 1155.25 357.342 1152.79 357.342C1150.79 357.342 1148.99 356.899 1147.4 356.012C1145.83 355.1 1144.59 353.833 1143.67 352.212C1142.79 350.565 1142.34 348.665 1142.34 346.512C1142.34 344.359 1142.77 342.471 1143.64 340.85C1144.52 339.203 1145.75 337.937 1147.32 337.05C1148.92 336.163 1150.74 335.72 1152.79 335.72C1154.77 335.72 1156.53 336.151 1158.08 337.012C1159.62 337.873 1160.82 339.089 1161.69 340.66C1162.55 342.205 1162.98 343.991 1162.98 346.018ZM1158.46 344.65C1158.43 343.054 1157.86 341.775 1156.75 340.812C1155.63 339.849 1154.25 339.368 1152.6 339.368C1151.11 339.368 1149.83 339.849 1148.77 340.812C1147.7 341.749 1147.07 343.029 1146.87 344.65H1158.46ZM1182.17 339.596V351.186C1182.17 351.971 1182.34 352.541 1182.7 352.896C1183.08 353.225 1183.71 353.39 1184.6 353.39H1187.26V357H1183.84C1181.89 357 1180.39 356.544 1179.35 355.632C1178.32 354.72 1177.8 353.238 1177.8 351.186V339.596H1175.33V336.062H1177.8V330.856H1182.17V336.062H1187.26V339.596H1182.17ZM1200.33 357.342C1198.36 357.342 1196.57 356.899 1194.97 356.012C1193.38 355.1 1192.12 353.833 1191.21 352.212C1190.3 350.565 1189.84 348.665 1189.84 346.512C1189.84 344.384 1190.31 342.497 1191.25 340.85C1192.19 339.203 1193.47 337.937 1195.09 337.05C1196.71 336.163 1198.52 335.72 1200.52 335.72C1202.52 335.72 1204.34 336.163 1205.96 337.05C1207.58 337.937 1208.86 339.203 1209.79 340.85C1210.73 342.497 1211.2 344.384 1211.2 346.512C1211.2 348.64 1210.72 350.527 1209.76 352.174C1208.79 353.821 1207.48 355.1 1205.8 356.012C1204.16 356.899 1202.33 357.342 1200.33 357.342ZM1200.33 353.58C1201.45 353.58 1202.49 353.314 1203.45 352.782C1204.44 352.25 1205.23 351.452 1205.84 350.388C1206.45 349.324 1206.75 348.032 1206.75 346.512C1206.75 344.992 1206.46 343.713 1205.88 342.674C1205.3 341.61 1204.53 340.812 1203.56 340.28C1202.6 339.748 1201.56 339.482 1200.45 339.482C1199.33 339.482 1198.29 339.748 1197.33 340.28C1196.39 340.812 1195.65 341.61 1195.09 342.674C1194.53 343.713 1194.25 344.992 1194.25 346.512C1194.25 348.767 1194.82 350.515 1195.96 351.756C1197.13 352.972 1198.58 353.58 1200.33 353.58ZM1011.2 392.72C1012.84 392.72 1014.31 393.062 1015.6 393.746C1016.92 394.43 1017.95 395.443 1018.68 396.786C1019.44 398.129 1019.82 399.75 1019.82 401.65V414H1015.53V402.296C1015.53 400.421 1015.06 398.99 1014.12 398.002C1013.18 396.989 1011.91 396.482 1010.28 396.482C1008.66 396.482 1007.37 396.989 1006.41 398.002C1005.47 398.99 1005 400.421 1005 402.296V414H1000.71V402.296C1000.71 400.421 1000.24 398.99 999.302 398.002C998.365 396.989 997.085 396.482 995.464 396.482C993.843 396.482 992.551 396.989 991.588 398.002C990.651 398.99 990.182 400.421 990.182 402.296V414H985.85V393.062H990.182V395.456C990.891 394.595 991.791 393.923 992.88 393.442C993.969 392.961 995.135 392.72 996.376 392.72C998.048 392.72 999.543 393.075 1000.86 393.784C1002.18 394.493 1003.19 395.519 1003.9 396.862C1004.53 395.595 1005.52 394.595 1006.86 393.86C1008.21 393.1 1009.65 392.72 1011.2 392.72ZM1044.18 393.062L1031.34 423.842H1026.85L1031.11 413.658L1022.86 393.062H1027.69L1033.58 409.022L1039.7 393.062H1044.18ZM1085.44 393.062L1078.94 414H1074.38L1070.17 398.534L1065.95 414H1061.39L1054.85 393.062H1059.26L1063.63 409.896L1068.08 393.062H1072.6L1076.85 409.82L1081.19 393.062H1085.44ZM1107.87 403.018C1107.87 403.803 1107.82 404.513 1107.72 405.146H1091.72C1091.85 406.818 1092.47 408.161 1093.58 409.174C1094.7 410.187 1096.06 410.694 1097.69 410.694C1100.02 410.694 1101.66 409.719 1102.63 407.768H1107.3C1106.67 409.693 1105.51 411.277 1103.84 412.518C1102.2 413.734 1100.14 414.342 1097.69 414.342C1095.68 414.342 1093.89 413.899 1092.29 413.012C1090.72 412.1 1089.48 410.833 1088.57 409.212C1087.68 407.565 1087.24 405.665 1087.24 403.512C1087.24 401.359 1087.67 399.471 1088.53 397.85C1089.41 396.203 1090.64 394.937 1092.21 394.05C1093.81 393.163 1095.63 392.72 1097.69 392.72C1099.66 392.72 1101.42 393.151 1102.97 394.012C1104.51 394.873 1105.72 396.089 1106.58 397.66C1107.44 399.205 1107.87 400.991 1107.87 403.018ZM1103.35 401.65C1103.32 400.054 1102.75 398.775 1101.64 397.812C1100.52 396.849 1099.14 396.368 1097.5 396.368C1096 396.368 1094.72 396.849 1093.66 397.812C1092.59 398.749 1091.96 400.029 1091.76 401.65H1103.35ZM1116.47 396.178C1117.2 395.165 1118.2 394.341 1119.47 393.708C1120.76 393.049 1122.19 392.72 1123.76 392.72C1125.61 392.72 1127.28 393.163 1128.78 394.05C1130.27 394.937 1131.45 396.203 1132.31 397.85C1133.17 399.471 1133.6 401.333 1133.6 403.436C1133.6 405.539 1133.17 407.426 1132.31 409.098C1131.45 410.745 1130.26 412.037 1128.74 412.974C1127.24 413.886 1125.59 414.342 1123.76 414.342C1122.14 414.342 1120.7 414.025 1119.43 413.392C1118.19 412.759 1117.2 411.948 1116.47 410.96V414H1112.13V385.88H1116.47V396.178ZM1129.2 403.436C1129.2 401.992 1128.89 400.751 1128.28 399.712C1127.7 398.648 1126.92 397.85 1125.93 397.318C1124.96 396.761 1123.93 396.482 1122.81 396.482C1121.72 396.482 1120.68 396.761 1119.7 397.318C1118.73 397.875 1117.95 398.686 1117.34 399.75C1116.76 400.814 1116.47 402.068 1116.47 403.512C1116.47 404.956 1116.76 406.223 1117.34 407.312C1117.95 408.376 1118.73 409.187 1119.7 409.744C1120.68 410.301 1121.72 410.58 1122.81 410.58C1123.93 410.58 1124.96 410.301 1125.93 409.744C1126.92 409.161 1127.7 408.325 1128.28 407.236C1128.89 406.147 1129.2 404.88 1129.2 403.436ZM1145.49 414.342C1143.84 414.342 1142.36 414.051 1141.04 413.468C1139.75 412.86 1138.72 412.049 1137.96 411.036C1137.2 409.997 1136.8 408.845 1136.75 407.578H1141.23C1141.31 408.465 1141.73 409.212 1142.49 409.82C1143.27 410.403 1144.25 410.694 1145.41 410.694C1146.63 410.694 1147.56 410.466 1148.22 410.01C1148.91 409.529 1149.25 408.921 1149.25 408.186C1149.25 407.401 1148.87 406.818 1148.11 406.438C1147.37 406.058 1146.2 405.64 1144.58 405.184C1143 404.753 1141.73 404.335 1140.74 403.93C1139.75 403.525 1138.89 402.904 1138.15 402.068C1137.44 401.232 1137.09 400.13 1137.09 398.762C1137.09 397.647 1137.42 396.634 1138.08 395.722C1138.74 394.785 1139.67 394.05 1140.89 393.518C1142.13 392.986 1143.55 392.72 1145.15 392.72C1147.53 392.72 1149.44 393.328 1150.88 394.544C1152.35 395.735 1153.14 397.369 1153.24 399.446H1148.91C1148.83 398.509 1148.45 397.761 1147.77 397.204C1147.08 396.647 1146.16 396.368 1144.99 396.368C1143.85 396.368 1142.98 396.583 1142.37 397.014C1141.76 397.445 1141.46 398.015 1141.46 398.724C1141.46 399.281 1141.66 399.75 1142.07 400.13C1142.47 400.51 1142.97 400.814 1143.55 401.042C1144.13 401.245 1144.99 401.511 1146.13 401.84C1147.65 402.245 1148.89 402.663 1149.86 403.094C1150.85 403.499 1151.69 404.107 1152.4 404.918C1153.11 405.729 1153.48 406.805 1153.51 408.148C1153.51 409.339 1153.18 410.403 1152.52 411.34C1151.86 412.277 1150.92 413.012 1149.71 413.544C1148.51 414.076 1147.11 414.342 1145.49 414.342ZM1160.39 390.288C1159.6 390.288 1158.95 390.022 1158.41 389.49C1157.88 388.958 1157.62 388.299 1157.62 387.514C1157.62 386.729 1157.88 386.07 1158.41 385.538C1158.95 385.006 1159.6 384.74 1160.39 384.74C1161.15 384.74 1161.8 385.006 1162.33 385.538C1162.86 386.07 1163.13 386.729 1163.13 387.514C1163.13 388.299 1162.86 388.958 1162.33 389.49C1161.8 390.022 1161.15 390.288 1160.39 390.288ZM1162.52 393.062V414H1158.19V393.062H1162.52ZM1173.26 396.596V408.186C1173.26 408.971 1173.44 409.541 1173.79 409.896C1174.17 410.225 1174.8 410.39 1175.69 410.39H1178.35V414H1174.93C1172.98 414 1171.49 413.544 1170.45 412.632C1169.41 411.72 1168.89 410.238 1168.89 408.186V396.596H1166.42V393.062H1168.89V387.856H1173.26V393.062H1178.35V396.596H1173.26ZM1201.53 403.018C1201.53 403.803 1201.48 404.513 1201.38 405.146H1185.38C1185.51 406.818 1186.13 408.161 1187.25 409.174C1188.36 410.187 1189.73 410.694 1191.35 410.694C1193.68 410.694 1195.33 409.719 1196.29 407.768H1200.96C1200.33 409.693 1199.18 411.277 1197.51 412.518C1195.86 413.734 1193.81 414.342 1191.35 414.342C1189.35 414.342 1187.55 413.899 1185.95 413.012C1184.38 412.1 1183.14 410.833 1182.23 409.212C1181.34 407.565 1180.9 405.665 1180.9 403.512C1180.9 401.359 1181.33 399.471 1182.19 397.85C1183.08 396.203 1184.31 394.937 1185.88 394.05C1187.47 393.163 1189.3 392.72 1191.35 392.72C1193.33 392.72 1195.09 393.151 1196.63 394.012C1198.18 394.873 1199.38 396.089 1200.24 397.66C1201.1 399.205 1201.53 400.991 1201.53 403.018ZM1197.01 401.65C1196.99 400.054 1196.42 398.775 1195.3 397.812C1194.19 396.849 1192.81 396.368 1191.16 396.368C1189.67 396.368 1188.39 396.849 1187.32 397.812C1186.26 398.749 1185.62 400.029 1185.42 401.65H1197.01ZM1207.55 414.266C1206.76 414.266 1206.1 414 1205.57 413.468C1205.04 412.936 1204.77 412.277 1204.77 411.492C1204.77 410.707 1205.04 410.048 1205.57 409.516C1206.1 408.984 1206.76 408.718 1207.55 408.718C1208.31 408.718 1208.95 408.984 1209.48 409.516C1210.02 410.048 1210.28 410.707 1210.28 411.492C1210.28 412.277 1210.02 412.936 1209.48 413.468C1208.95 414 1208.31 414.266 1207.55 414.266Z" fill="white"/>
</g>
<defs>
<clipPath id="clip0_177_1600">
<rect width="1440" height="542" fill="white"/>
</clipPath>
</defs>
</svg>
