<svg width="468" height="160" viewBox="0 0 468 160" fill="none" xmlns="http://www.w3.org/2000/svg">
<rect width="468" height="160" rx="10" fill="#011E39"/>
<path fill-rule="evenodd" clip-rule="evenodd" d="M249.563 52.9632V43.9933H259.701V42H247.157V66.0571H259.701V64.0638H249.563V54.9565H258.67V52.9632H249.563ZM277.913 54.0629L285.199 66.0571H282.519L276.401 56.0219L270.593 66.0571H267.912L275.164 53.9598L267.912 42.0344H270.593L276.676 52.0353L282.553 42.0344H285.234L277.913 54.0629ZM344.557 42.0344V66.0571H342.152V42.0344H344.557ZM365.849 64.0982H357.222V42.0344H354.817V66.0571H365.849V64.0982ZM376.499 64.0982H385.125V66.0571H374.093V42.0344H376.499V64.0982ZM427.44 56.0219L433.385 66.0571H436.272L430.086 55.85C432.033 55.4834 433.5 54.693 434.485 53.4787C435.493 52.2415 435.997 50.7522 435.997 49.0109C435.997 46.926 435.298 45.242 433.901 43.9589C432.526 42.6759 430.498 42.0344 427.818 42.0344H420.601V66.0571H423.006V56.0219H427.44ZM427.852 54.0629H423.006V44.062H427.818C429.788 44.062 431.232 44.4974 432.148 45.368C433.064 46.2157 433.523 47.43 433.523 49.0109C433.523 50.546 433.042 51.7718 432.079 52.6882C431.14 53.6047 429.731 54.0629 427.852 54.0629ZM396.36 60.3521H407.289L409.385 66.0571H411.928L403.199 42.3437H400.484L391.72 66.0571H394.263L396.36 60.3521ZM401.824 45.368L406.567 58.3588H397.081L401.824 45.368ZM331.883 66.0571V42.3437H329.305L320.129 62.8953L310.953 42.3437H308.41V66.0571H310.816V47.1895L319.27 66.0571H321.023L329.477 47.1207V66.0571H331.883ZM230.286 64.0982H238.912V66.0571H227.88V42.0344H230.286V64.0982ZM203.64 60.3521H214.568L216.665 66.0571H219.208L210.479 42.3437H207.764L199 66.0571H201.543L203.64 60.3521ZM209.104 45.368L213.847 58.3588H204.361L209.104 45.368Z" fill="white"/>
<path fill-rule="evenodd" clip-rule="evenodd" d="M291.688 116.778C293.68 117.632 295.922 118.059 298.413 118.059C301.047 118.059 303.324 117.561 305.246 116.564C307.203 115.532 308.68 114.18 309.676 112.507C310.708 110.835 311.224 109.056 311.224 107.17C311.224 104.821 310.673 102.953 309.57 101.565C308.502 100.141 307.185 99.0915 305.62 98.4153C304.089 97.7392 302.097 97.0631 299.641 96.3869C297.791 95.8887 296.332 95.4261 295.264 94.9991C294.196 94.572 293.307 94.0027 292.595 93.2909C291.919 92.5436 291.581 91.6006 291.581 90.4618C291.581 88.7893 292.132 87.5082 293.236 86.6185C294.339 85.7289 295.762 85.2841 297.506 85.2841C299.428 85.2841 300.976 85.7645 302.15 86.7253C303.324 87.6861 303.965 88.8427 304.072 90.1949H310.797C310.548 87.0634 309.267 84.6079 306.954 82.8286C304.677 81.0137 301.741 80.1063 298.147 80.1063C295.62 80.1063 293.396 80.5333 291.474 81.3874C289.552 82.2414 288.058 83.4692 286.99 85.0705C285.923 86.6719 285.389 88.5402 285.389 90.6754C285.389 92.9885 285.923 94.8389 286.99 96.2268C288.058 97.6147 289.339 98.6467 290.834 99.3228C292.364 99.9634 294.339 100.604 296.759 101.244C298.68 101.743 300.175 102.205 301.243 102.632C302.346 103.059 303.253 103.664 303.965 104.447C304.712 105.23 305.086 106.244 305.086 107.49C305.086 109.091 304.499 110.408 303.324 111.44C302.15 112.436 300.513 112.935 298.413 112.935C296.385 112.935 294.801 112.419 293.663 111.387C292.559 110.355 291.937 109.038 291.794 107.436H285.282C285.282 109.572 285.852 111.44 286.99 113.041C288.129 114.643 289.695 115.888 291.688 116.778ZM376.677 87.0989C378.386 88.0242 379.72 89.412 380.681 91.2625H387.994C386.606 87.7039 384.364 84.9638 381.268 83.0421C378.208 81.0849 374.702 80.1063 370.752 80.1063C367.3 80.1063 364.116 80.9247 361.197 82.5617C358.315 84.1631 356.02 86.405 354.312 89.2875C352.639 92.17 351.803 95.4261 351.803 99.0559C351.803 102.686 352.639 105.942 354.312 108.824C356.02 111.707 358.315 113.967 361.197 115.603C364.08 117.205 367.265 118.006 370.752 118.006C373.991 118.006 376.927 117.294 379.56 115.87C382.229 114.411 384.382 112.472 386.019 110.052C387.691 107.632 388.723 104.981 389.115 102.099V97.3478H368.671V102.205H382.603C382.14 105.372 380.877 107.881 378.813 109.732C376.749 111.582 374.062 112.507 370.752 112.507C368.297 112.507 366.108 111.956 364.187 110.853C362.265 109.75 360.753 108.184 359.649 106.155C358.582 104.091 358.048 101.725 358.048 99.0559C358.048 96.3869 358.582 94.0382 359.649 92.0098C360.753 89.9814 362.265 88.4156 364.187 87.3125C366.108 86.2093 368.297 85.6577 370.752 85.6577C372.994 85.6577 374.969 86.1381 376.677 87.0989ZM430.187 117.685H436.272V80.5333H430.187V108.184L411.878 80.5333H405.793V117.685H411.878V89.9814L430.187 117.685ZM335.166 80.5867V117.685H329.081V80.5867H335.166ZM253.606 85.4975V96.3869H266.417V101.351H253.606V112.721H268.019V117.685H247.521V80.5333H268.019V85.4975H253.606ZM221.473 82.882C218.519 81.3518 215.067 80.5867 211.117 80.5867H199V117.685H211.117C215.067 117.685 218.519 116.956 221.473 115.497C224.462 114.002 226.757 111.867 228.359 109.091C229.996 106.315 230.814 103.042 230.814 99.2694C230.814 95.4973 229.996 92.2055 228.359 89.3942C226.757 86.5473 224.462 84.3766 221.473 82.882ZM221.099 109.198C218.786 111.547 215.459 112.721 211.117 112.721H205.085V85.5509H211.117C215.459 85.5509 218.786 86.7609 221.099 89.1807C223.412 91.6006 224.569 94.9635 224.569 99.2694C224.569 103.54 223.412 106.849 221.099 109.198Z" fill="white"/>
<path fill-rule="evenodd" clip-rule="evenodd" d="M115.914 82.8357L116.044 82.3873C116.907 79.4128 117.37 76.2695 117.37 73.0182C117.37 54.3598 102.127 39.2224 83.3092 39.2224C64.4915 39.2224 49.2485 54.3598 49.2485 73.0182C49.2485 84.8542 55.3806 95.2718 64.6709 101.31L64.8985 101.458V107.511L64.1607 107.102C52.1359 100.432 44 87.6701 44 73.0182C44 51.4626 61.6058 34 83.3092 34C105.013 34 122.618 51.4626 122.618 73.0182C122.618 77.2343 121.944 81.295 120.698 85.0997L120.429 85.9196L119.855 85.2777C119.442 84.8154 118.946 84.3811 118.358 83.9798C117.821 83.6128 117.125 83.2849 116.35 82.9974L115.914 82.8357ZM108.87 81.488L108.489 81.4803C107.339 81.4571 105.803 81.4928 104.488 81.7454L103.628 81.9106L103.927 81.0828C104.774 78.7336 105.237 76.1978 105.237 73.5522C105.237 61.367 95.4196 51.4889 83.3092 51.4889C71.1988 51.4889 61.3814 61.367 61.3814 73.5522C61.3814 77.9218 62.6433 81.9932 64.8202 85.4196L64.8985 85.5429V93.1042L64.0425 92.2095C59.4151 87.3728 56.5691 80.7964 56.5691 73.5522C56.5691 58.6928 68.5411 46.6468 83.3092 46.6468C98.0773 46.6468 110.049 58.6928 110.049 73.5522C110.049 76.1792 109.675 78.7191 108.977 81.1203L108.87 81.488ZM98.1116 103.312L98.111 108.593L98.1113 104.093L98.1116 103.312ZM116.57 94.3283C114.779 92.5576 112.325 91.6113 109.05 91.6113C105.851 91.6113 103.475 92.5541 101.756 94.3158C100.09 96.0231 99.1068 98.9127 99.1068 103.312L99.1062 108.593C99.1062 109.647 98.2572 110.501 97.2099 110.501C96.1626 110.501 95.3135 109.647 95.3135 108.593L95.3136 93.0882H75.1599L75.1599 108.593C75.1599 109.647 74.3108 110.501 73.2635 110.501C72.2162 110.501 71.3672 109.647 71.3672 108.593L71.3672 86.8136C71.3672 81.868 72.5073 77.9304 75.0558 75.2905C77.5397 72.6806 80.9517 71.4497 85.1034 71.4497C89.2596 71.4497 92.7091 72.6823 95.2915 75.2707L95.2989 75.2781C97.9219 77.9466 99.1062 81.8839 99.1062 86.8136L99.1062 91.6819C101.581 89.1456 104.956 87.9485 109.05 87.9485C113.207 87.9485 116.656 89.1812 119.239 91.7697L119.246 91.7769C119.785 92.3253 120.265 92.9298 120.687 93.588C120.706 93.6164 120.832 93.734 121.12 93.7323C121.409 93.7306 121.534 93.6114 121.553 93.5823C121.961 92.9295 122.427 92.3309 122.95 91.7891C125.434 89.1793 128.846 87.9485 132.997 87.9485C137.153 87.9485 140.603 89.1812 143.185 91.7697L143.193 91.7769C145.816 94.4454 147 98.3827 147 103.312V125.092C147 126.146 146.151 127 145.104 127C144.056 127 143.207 126.146 143.207 125.092V103.312C143.207 98.9218 142.211 96.0369 140.517 94.3285C138.726 92.5577 136.272 91.6113 132.997 91.6113C129.798 91.6113 127.422 92.5541 125.703 94.3158C124.037 96.0231 123.054 98.9127 123.054 103.312L123.053 125.092C123.053 126.146 122.204 127 121.157 127C120.109 127 119.26 126.146 119.26 125.092V103.312C119.26 98.9216 118.264 96.0366 116.57 94.3283ZM95.3136 89.2331V86.8136C95.3136 82.4229 94.3167 79.5379 92.6233 77.8296C90.8323 76.0588 88.378 75.1125 85.1034 75.1125C81.9045 75.1125 79.5284 76.0554 77.8092 77.817C76.143 79.5243 75.1599 82.4139 75.1599 86.8136L75.1599 89.2331H95.3136Z" fill="white"/>
</svg>
