<svg width="188" height="98" viewBox="0 0 188 98" fill="none" xmlns="http://www.w3.org/2000/svg">
<rect width="188" height="98" fill="#3C668C"/>
<path d="M163 72.0039H160.996L149.917 55.1766V72.0039H147.913V52H149.917L160.996 68.7987V52H163V72.0039Z" fill="white"/>
<path d="M132.19 57.6339C131.617 56.3174 130.739 55.2872 129.556 54.5431C128.392 53.78 127.018 53.3984 125.433 53.3984C123.945 53.3984 122.609 53.7418 121.425 54.4287C120.242 55.1155 119.307 56.098 118.62 57.3763C117.933 58.6355 117.589 60.1045 117.589 61.7834C117.589 63.4624 117.933 64.9409 118.62 66.2192C119.307 67.4975 120.242 68.48 121.425 69.1668C122.609 69.8537 123.945 70.1971 125.433 70.1971C126.827 70.1971 128.077 69.9014 129.184 69.3099C130.31 68.6994 131.207 67.8409 131.875 66.7343C132.562 65.6087 132.953 64.3018 133.049 62.8137H124.632V61.1825H135.167V62.642C135.072 64.3972 134.595 65.9903 133.736 67.4212C132.877 68.833 131.722 69.9491 130.272 70.7694C128.84 71.5898 127.228 72 125.433 72C123.582 72 121.903 71.5707 120.395 70.7122C118.887 69.8346 117.694 68.6231 116.816 67.0777C115.957 65.5133 115.528 63.7485 115.528 61.7834C115.528 59.8183 115.957 58.0631 116.816 56.5178C117.694 54.9533 118.887 53.7418 120.395 52.8833C121.903 52.0057 123.582 51.5669 125.433 51.5669C127.571 51.5669 129.442 52.1011 131.045 53.1695C132.648 54.2379 133.812 55.726 134.537 57.6339H132.19Z" fill="white"/>
<path d="M103.603 51.7958V71.7997H101.599V51.7958H103.603Z" fill="white"/>
<path d="M82.9829 72C81.666 72 80.5018 71.7711 79.4902 71.3132C78.4977 70.8553 77.7152 70.2162 77.1426 69.3958C76.57 68.5754 76.2647 67.6596 76.2265 66.6485H78.345C78.4405 67.6215 78.8699 68.48 79.6333 69.2241C80.3968 69.9491 81.5133 70.3116 82.9829 70.3116C84.338 70.3116 85.4069 69.9681 86.1894 69.2813C86.991 68.5754 87.3918 67.6882 87.3918 66.6199C87.3918 65.7613 87.1723 65.0745 86.7333 64.5594C86.2944 64.0252 85.7504 63.6341 85.1015 63.386C84.4526 63.1189 83.5555 62.8328 82.4104 62.5275C81.0743 62.165 80.0151 61.8121 79.2325 61.4686C78.45 61.1252 77.782 60.591 77.2285 59.866C76.675 59.1411 76.3983 58.1585 76.3983 56.9184C76.3983 55.8882 76.6655 54.9724 77.1999 54.1711C77.7343 53.3507 78.4882 52.7116 79.4616 52.2537C80.435 51.7958 81.5515 51.5669 82.8112 51.5669C84.6625 51.5669 86.1512 52.0248 87.2773 52.9405C88.4225 53.8372 89.0809 55.001 89.2527 56.4319H87.0769C86.9433 55.6115 86.4948 54.8865 85.7313 54.257C84.9679 53.6083 83.9372 53.2839 82.6394 53.2839C81.437 53.2839 80.435 53.6083 79.6333 54.257C78.8317 54.8865 78.4309 55.7546 78.4309 56.8612C78.4309 57.7006 78.6504 58.3779 79.0894 58.893C79.5284 59.4082 80.0723 59.7993 80.7212 60.0664C81.3893 60.3335 82.2863 60.6196 83.4124 60.9249C84.7102 61.2874 85.76 61.6499 86.5616 62.0124C87.3632 62.3558 88.0407 62.89 88.5942 63.615C89.1477 64.34 89.4245 65.313 89.4245 66.534C89.4245 67.4688 89.1763 68.356 88.6801 69.1955C88.1839 70.0349 87.4491 70.7122 86.4757 71.2273C85.5023 71.7424 84.338 72 82.9829 72Z" fill="white"/>
<path d="M56.2169 53.427V60.8963H63.8035V62.5561H56.2169V70.1398H64.6624V71.7997H54.2128V51.7672H64.6624V53.427H56.2169Z" fill="white"/>
<path d="M31.623 51.7958C33.837 51.7958 35.736 52.1965 37.3202 52.9978C38.9043 53.7991 40.1163 54.9533 40.9561 56.4605C41.7958 57.9677 42.2157 59.7611 42.2157 61.8407C42.2157 63.9012 41.7958 65.685 40.9561 67.1922C40.1163 68.6803 38.9043 69.8251 37.3202 70.6263C35.736 71.4086 33.837 71.7997 31.623 71.7997H25.6968V51.7958H31.623ZM31.623 70.1398C34.4096 70.1398 36.5281 69.4149 37.9786 67.9649C39.4483 66.4958 40.1831 64.4544 40.1831 61.8407C40.1831 59.2078 39.4483 57.1569 37.9786 55.6878C36.5281 54.1997 34.4096 53.4557 31.623 53.4557H27.7008V70.1398H31.623Z" fill="white"/>
<path d="M158.441 33.2896C158.913 32.5201 159.525 31.9168 160.278 31.4796C161.047 31.0423 161.922 30.8237 162.902 30.8237V34.68H161.931C160.776 34.68 159.901 34.9511 159.307 35.4932C158.729 36.0354 158.441 36.9797 158.441 38.3264V45.5667H154.766V31.0336H158.441V33.2896Z" fill="white"/>
<path d="M135.773 38.2477C135.773 36.7786 136.062 35.4757 136.639 34.339C137.234 33.2022 138.03 32.3278 139.027 31.7157C140.042 31.1036 141.171 30.7975 142.413 30.7975C143.498 30.7975 144.442 31.0161 145.247 31.4533C146.069 31.8905 146.725 32.4414 147.215 33.106V31.0336H150.916V45.5667H147.215V43.4418C146.743 44.1239 146.087 44.6922 145.247 45.147C144.425 45.5842 143.471 45.8028 142.387 45.8028C141.162 45.8028 140.042 45.488 139.027 44.8584C138.03 44.2288 137.234 43.3456 136.639 42.2089C136.062 41.0546 135.773 39.7342 135.773 38.2477ZM147.215 38.3001C147.215 37.4082 147.04 36.6475 146.691 36.0179C146.341 35.3708 145.868 34.8811 145.273 34.5488C144.679 34.199 144.04 34.0242 143.358 34.0242C142.675 34.0242 142.045 34.1903 141.468 34.5226C140.891 34.8549 140.418 35.3446 140.051 35.9916C139.701 36.6212 139.526 37.3732 139.526 38.2477C139.526 39.1221 139.701 39.8916 140.051 40.5562C140.418 41.2033 140.891 41.7017 141.468 42.0515C142.063 42.4012 142.693 42.5761 143.358 42.5761C144.04 42.5761 144.679 42.41 145.273 42.0777C145.868 41.7279 146.341 41.2382 146.691 40.6086C147.04 39.9616 147.215 39.1921 147.215 38.3001Z" fill="white"/>
<path d="M132.826 26.1543V45.5667H129.152V26.1543H132.826Z" fill="white"/>
<path d="M125.259 26.1543V45.5667H121.585V26.1543H125.259Z" fill="white"/>
<path d="M115.882 29.3022C115.235 29.3022 114.692 29.1011 114.255 28.6989C113.835 28.2791 113.625 27.7632 113.625 27.1511C113.625 26.539 113.835 26.0318 114.255 25.6296C114.692 25.2099 115.235 25 115.882 25C116.529 25 117.063 25.2099 117.483 25.6296C117.92 26.0318 118.139 26.539 118.139 27.1511C118.139 27.7632 117.92 28.2791 117.483 28.6989C117.063 29.1011 116.529 29.3022 115.882 29.3022ZM117.693 31.0336V45.5667H114.019V31.0336H117.693Z" fill="white"/>
<path d="M110.124 27.256V45.5667H106.45V33.6569L101.542 45.5667H98.7605L93.8268 33.6569V45.5667H90.1527V27.256H94.3254L100.151 40.871L105.977 27.256H110.124Z" fill="white"/>
<path d="M77.2327 45.5667L74.241 41.0546L71.5904 45.5667H67.6539L72.4039 38.2739L67.6014 31.0336H71.7478L74.7133 35.5194L77.3901 31.0336H81.3266L76.5504 38.2739L81.3791 45.5667H77.2327Z" fill="white"/>
<path d="M66.2581 37.9853C66.2581 38.51 66.2231 38.9822 66.1531 39.4019H55.5246C55.6121 40.4512 55.9795 41.2732 56.6268 41.8678C57.2741 42.4624 58.0702 42.7598 59.0149 42.7598C60.3796 42.7598 61.3506 42.1739 61.9279 41.0021H65.8907C65.4708 42.4012 64.666 43.5555 63.4763 44.4649C62.2866 45.3568 60.8257 45.8028 59.0937 45.8028C57.694 45.8028 56.4343 45.4967 55.3146 44.8846C54.2124 44.255 53.3464 43.3719 52.7165 42.2351C52.1042 41.0983 51.798 39.7867 51.798 38.3001C51.798 36.7961 52.1042 35.4757 52.7165 34.339C53.3289 33.2022 54.1862 32.3278 55.2884 31.7157C56.3906 31.1036 57.659 30.7975 59.0937 30.7975C60.4758 30.7975 61.7092 31.0948 62.794 31.6894C63.8962 32.284 64.7447 33.1322 65.3395 34.234C65.9519 35.3183 66.2581 36.5688 66.2581 37.9853ZM62.4528 36.936C62.4353 35.9916 62.0941 35.2396 61.4293 34.68C60.7645 34.1029 59.9509 33.8143 58.9887 33.8143C58.0789 33.8143 57.3091 34.0941 56.6793 34.6538C56.0669 35.1959 55.6908 35.9567 55.5508 36.936H62.4528Z" fill="white"/>
<path d="M48.8504 26.1543V45.5667H45.1763V26.1543H48.8504Z" fill="white"/>
<path d="M37.3606 42.0777H30.0649L28.8578 45.5667H25L31.5871 27.2298H35.8647L42.4518 45.5667H38.5678L37.3606 42.0777ZM36.3633 39.1396L33.7128 31.4796L31.0622 39.1396H36.3633Z" fill="white"/>
<rect x="11" y="11" width="166" height="76" stroke="white" stroke-width="2"/>
</svg>
