<svg width="505" height="160" viewBox="0 0 505 160" fill="none" xmlns="http://www.w3.org/2000/svg">
<rect width="505" height="160" rx="10" fill="#011E39"/>
<path fill-rule="evenodd" clip-rule="evenodd" d="M269.563 52.9632V43.9933H279.701V42H267.157V66.0571H279.701V64.0638H269.563V54.9565H278.67V52.9632H269.563ZM297.913 54.0629L305.199 66.0571H302.519L296.401 56.0219L290.593 66.0571H287.912L295.164 53.9598L287.912 42.0344H290.593L296.676 52.0353L302.553 42.0344H305.234L297.913 54.0629ZM364.557 42.0344V66.0571H362.152V42.0344H364.557ZM385.849 64.0982H377.222V42.0344H374.817V66.0571H385.849V64.0982ZM396.499 64.0982H405.125V66.0571H394.093V42.0344H396.499V64.0982ZM447.44 56.0219L453.385 66.0571H456.272L450.086 55.85C452.033 55.4834 453.5 54.693 454.485 53.4787C455.493 52.2415 455.997 50.7522 455.997 49.0109C455.997 46.926 455.298 45.242 453.901 43.9589C452.526 42.6759 450.498 42.0344 447.818 42.0344H440.601V66.0571H443.006V56.0219H447.44ZM447.852 54.0629H443.006V44.062H447.818C449.788 44.062 451.232 44.4974 452.148 45.368C453.064 46.2157 453.523 47.43 453.523 49.0109C453.523 50.546 453.042 51.7718 452.079 52.6882C451.14 53.6047 449.731 54.0629 447.852 54.0629ZM416.36 60.3521H427.289L429.385 66.0571H431.928L423.199 42.3437H420.484L411.72 66.0571H414.263L416.36 60.3521ZM421.824 45.368L426.567 58.3588H417.081L421.824 45.368ZM351.883 66.0571V42.3437H349.305L340.129 62.8953L330.953 42.3437H328.41V66.0571H330.816V47.1895L339.27 66.0571H341.023L349.477 47.1207V66.0571H351.883ZM250.286 64.0982H258.912V66.0571H247.88V42.0344H250.286V64.0982ZM223.64 60.3521H234.568L236.665 66.0571H239.208L230.479 42.3437H227.764L219 66.0571H221.543L223.64 60.3521ZM229.104 45.368L233.847 58.3588H224.361L229.104 45.368Z" fill="white"/>
<path fill-rule="evenodd" clip-rule="evenodd" d="M311.688 116.778C313.68 117.632 315.922 118.059 318.413 118.059C321.047 118.059 323.324 117.561 325.246 116.564C327.203 115.532 328.68 114.18 329.676 112.507C330.708 110.835 331.224 109.056 331.224 107.17C331.224 104.821 330.673 102.953 329.57 101.565C328.502 100.141 327.185 99.0915 325.62 98.4153C324.089 97.7392 322.097 97.0631 319.641 96.3869C317.791 95.8887 316.332 95.4261 315.264 94.9991C314.196 94.572 313.307 94.0027 312.595 93.2909C311.919 92.5436 311.581 91.6006 311.581 90.4618C311.581 88.7893 312.132 87.5082 313.236 86.6185C314.339 85.7289 315.762 85.2841 317.506 85.2841C319.428 85.2841 320.976 85.7645 322.15 86.7253C323.324 87.6861 323.965 88.8427 324.072 90.1949H330.797C330.548 87.0634 329.267 84.6079 326.954 82.8286C324.677 81.0137 321.741 80.1063 318.147 80.1063C315.62 80.1063 313.396 80.5333 311.474 81.3874C309.552 82.2414 308.058 83.4692 306.99 85.0705C305.923 86.6719 305.389 88.5402 305.389 90.6754C305.389 92.9885 305.923 94.8389 306.99 96.2268C308.058 97.6147 309.339 98.6467 310.834 99.3228C312.364 99.9633 314.339 100.604 316.759 101.244C318.68 101.743 320.175 102.205 321.243 102.632C322.346 103.059 323.253 103.664 323.965 104.447C324.712 105.23 325.086 106.244 325.086 107.49C325.086 109.091 324.499 110.408 323.324 111.44C322.15 112.436 320.513 112.935 318.413 112.935C316.385 112.935 314.801 112.419 313.663 111.387C312.559 110.355 311.937 109.038 311.794 107.436H305.282C305.282 109.572 305.852 111.44 306.99 113.041C308.129 114.643 309.695 115.888 311.688 116.778ZM396.677 87.0989C398.386 88.0242 399.72 89.412 400.681 91.2625H407.994C406.606 87.7039 404.364 84.9638 401.268 83.0421C398.208 81.0849 394.702 80.1063 390.752 80.1063C387.3 80.1063 384.116 80.9247 381.197 82.5617C378.315 84.1631 376.02 86.405 374.312 89.2875C372.639 92.17 371.803 95.4261 371.803 99.0559C371.803 102.686 372.639 105.942 374.312 108.824C376.02 111.707 378.315 113.967 381.197 115.603C384.08 117.205 387.265 118.006 390.752 118.006C393.991 118.006 396.927 117.294 399.56 115.87C402.229 114.411 404.382 112.472 406.019 110.052C407.691 107.632 408.723 104.981 409.115 102.099V97.3478H388.671V102.205H402.603C402.14 105.372 400.877 107.881 398.813 109.732C396.749 111.582 394.062 112.507 390.752 112.507C388.297 112.507 386.108 111.956 384.187 110.853C382.265 109.75 380.753 108.184 379.649 106.155C378.582 104.091 378.048 101.725 378.048 99.0559C378.048 96.3869 378.582 94.0382 379.649 92.0098C380.753 89.9814 382.265 88.4156 384.187 87.3125C386.108 86.2093 388.297 85.6577 390.752 85.6577C392.994 85.6577 394.969 86.1381 396.677 87.0989ZM450.187 117.685H456.272V80.5333H450.187V108.184L431.878 80.5333H425.793V117.685H431.878V89.9814L450.187 117.685ZM355.166 80.5867V117.685H349.081V80.5867H355.166ZM273.606 85.4975V96.3869H286.417V101.351H273.606V112.721H288.019V117.685H267.521V80.5333H288.019V85.4975H273.606ZM241.473 82.882C238.519 81.3518 235.067 80.5867 231.117 80.5867H219V117.685H231.117C235.067 117.685 238.519 116.956 241.473 115.497C244.462 114.002 246.757 111.867 248.359 109.091C249.996 106.315 250.814 103.042 250.814 99.2694C250.814 95.4973 249.996 92.2055 248.359 89.3942C246.757 86.5473 244.462 84.3766 241.473 82.882ZM241.099 109.198C238.786 111.547 235.459 112.721 231.117 112.721H225.085V85.5509H231.117C235.459 85.5509 238.786 86.7609 241.099 89.1807C243.412 91.6006 244.569 94.9635 244.569 99.2694C244.569 103.54 243.412 106.849 241.099 109.198Z" fill="white"/>
<mask id="path-4-outside-1_119_108" maskUnits="userSpaceOnUse" x="55" y="43" width="107" height="74" fill="black">
<rect fill="white" x="55" y="43" width="107" height="74"/>
<path fill-rule="evenodd" clip-rule="evenodd" d="M108.109 60.4021C103.677 52.2618 94.9884 46.7312 84.9974 46.7312C70.5056 46.7312 58.7577 58.3663 58.7577 72.7189C58.7577 81.4465 63.1013 89.1703 69.7675 93.8839V97.1623C61.5066 92.103 56 83.0485 56 72.7189C56 56.8579 68.9826 44 84.9974 44C96.2806 44 106.057 50.382 110.85 59.6984C109.901 59.8399 108.984 60.0779 108.109 60.4021ZM69.7675 87.1408V83.0631C67.8743 80.1394 66.7748 76.6527 66.7748 72.9082C66.7748 62.5736 75.1469 54.2114 85.4549 54.2114C92.7961 54.2114 99.1555 58.4518 102.208 64.6282C102.762 63.9484 103.379 63.3225 104.051 62.7594C100.458 56.1889 93.4809 51.727 85.4549 51.727C73.7478 51.727 64.273 61.2188 64.273 72.9082C64.273 78.3863 66.3531 83.3799 69.7675 87.1408ZM131.495 106.307C131.495 106.307 131.495 106.307 131.495 106.307L133.56 106.307C133.56 106.307 133.56 106.307 133.56 106.307C133.561 106.307 133.561 106.307 133.561 106.307V80.4716C133.561 75.3263 134.712 71.6784 136.923 69.4271C139.15 67.159 142.19 66.0057 146.095 66.0057C150.082 66.0057 153.206 67.1601 155.515 69.431C157.764 71.6826 158.935 75.329 158.935 80.4716V105.307C158.935 105.86 159.383 106.307 159.935 106.307H160C160.552 106.307 161 105.86 161 105.307V80.4716C161 75.0217 159.682 70.8816 156.967 68.1366L156.965 68.1344C154.262 65.4422 150.623 64.1151 146.095 64.1151C141.569 64.1151 137.985 65.4417 135.403 68.1404C134.764 68.7971 134.206 69.5379 133.726 70.3616C133.241 71.1942 131.75 71.2032 131.255 70.3762C130.76 69.5486 130.185 68.8016 129.527 68.1366L129.525 68.1344C126.822 65.4422 123.183 64.1151 118.655 64.1151C114.129 64.1151 110.545 65.4417 107.963 68.1404C105.96 70.2004 104.743 73.0889 104.276 76.7669C104.163 77.6552 102.717 78.0556 102.087 77.4189L102.085 77.4167C99.3824 74.7245 95.7426 73.3974 91.2149 73.3974C86.6888 73.3974 83.1052 74.724 80.5225 77.4228C77.8901 80.1308 76.6154 84.2709 76.6154 89.7539L76.6154 114.59C76.6154 115.142 77.0631 115.59 77.6154 115.59H77.6806C78.2329 115.59 78.6806 115.142 78.6806 114.59L78.6806 96.7593C78.6806 96.207 79.1283 95.7593 79.6806 95.7593H103.055C103.607 95.7593 104.055 96.207 104.055 96.7593V114.59C104.055 115.142 104.503 115.59 105.055 115.59H105.12C105.672 115.59 106.12 115.142 106.12 114.59V106.308C106.12 106.308 106.12 106.307 106.12 106.307C106.121 106.307 106.121 106.307 106.121 106.307V80.4716C106.121 75.3263 107.272 71.6784 109.483 69.4271C111.71 67.159 114.75 66.0057 118.655 66.0057C122.642 66.0057 125.766 67.1601 128.075 69.431C130.324 71.6826 131.495 75.329 131.495 80.4716L131.495 106.307ZM78.6806 92.6497C78.6806 93.202 79.1283 93.6497 79.6806 93.6497H103.055C103.607 93.6497 104.055 93.202 104.055 92.6497V89.7539C104.055 84.6113 102.884 80.9649 100.635 78.7133C98.3262 76.4424 95.2024 75.2881 91.2149 75.2881C87.3105 75.288 84.2703 76.4413 82.0431 78.7094C79.8324 80.9607 78.6806 84.6086 78.6806 89.7539V92.6497Z"/>
</mask>
<path fill-rule="evenodd" clip-rule="evenodd" d="M108.109 60.4021C103.677 52.2618 94.9884 46.7312 84.9974 46.7312C70.5056 46.7312 58.7577 58.3663 58.7577 72.7189C58.7577 81.4465 63.1013 89.1703 69.7675 93.8839V97.1623C61.5066 92.103 56 83.0485 56 72.7189C56 56.8579 68.9826 44 84.9974 44C96.2806 44 106.057 50.382 110.85 59.6984C109.901 59.8399 108.984 60.0779 108.109 60.4021ZM69.7675 87.1408V83.0631C67.8743 80.1394 66.7748 76.6527 66.7748 72.9082C66.7748 62.5736 75.1469 54.2114 85.4549 54.2114C92.7961 54.2114 99.1555 58.4518 102.208 64.6282C102.762 63.9484 103.379 63.3225 104.051 62.7594C100.458 56.1889 93.4809 51.727 85.4549 51.727C73.7478 51.727 64.273 61.2188 64.273 72.9082C64.273 78.3863 66.3531 83.3799 69.7675 87.1408ZM131.495 106.307C131.495 106.307 131.495 106.307 131.495 106.307L133.56 106.307C133.56 106.307 133.56 106.307 133.56 106.307C133.561 106.307 133.561 106.307 133.561 106.307V80.4716C133.561 75.3263 134.712 71.6784 136.923 69.4271C139.15 67.159 142.19 66.0057 146.095 66.0057C150.082 66.0057 153.206 67.1601 155.515 69.431C157.764 71.6826 158.935 75.329 158.935 80.4716V105.307C158.935 105.86 159.383 106.307 159.935 106.307H160C160.552 106.307 161 105.86 161 105.307V80.4716C161 75.0217 159.682 70.8816 156.967 68.1366L156.965 68.1344C154.262 65.4422 150.623 64.1151 146.095 64.1151C141.569 64.1151 137.985 65.4417 135.403 68.1404C134.764 68.7971 134.206 69.5379 133.726 70.3616C133.241 71.1942 131.75 71.2032 131.255 70.3762C130.76 69.5486 130.185 68.8016 129.527 68.1366L129.525 68.1344C126.822 65.4422 123.183 64.1151 118.655 64.1151C114.129 64.1151 110.545 65.4417 107.963 68.1404C105.96 70.2004 104.743 73.0889 104.276 76.7669C104.163 77.6552 102.717 78.0556 102.087 77.4189L102.085 77.4167C99.3824 74.7245 95.7426 73.3974 91.2149 73.3974C86.6888 73.3974 83.1052 74.724 80.5225 77.4228C77.8901 80.1308 76.6154 84.2709 76.6154 89.7539L76.6154 114.59C76.6154 115.142 77.0631 115.59 77.6154 115.59H77.6806C78.2329 115.59 78.6806 115.142 78.6806 114.59L78.6806 96.7593C78.6806 96.207 79.1283 95.7593 79.6806 95.7593H103.055C103.607 95.7593 104.055 96.207 104.055 96.7593V114.59C104.055 115.142 104.503 115.59 105.055 115.59H105.12C105.672 115.59 106.12 115.142 106.12 114.59V106.308C106.12 106.308 106.12 106.307 106.12 106.307C106.121 106.307 106.121 106.307 106.121 106.307V80.4716C106.121 75.3263 107.272 71.6784 109.483 69.4271C111.71 67.159 114.75 66.0057 118.655 66.0057C122.642 66.0057 125.766 67.1601 128.075 69.431C130.324 71.6826 131.495 75.329 131.495 80.4716L131.495 106.307ZM78.6806 92.6497C78.6806 93.202 79.1283 93.6497 79.6806 93.6497H103.055C103.607 93.6497 104.055 93.202 104.055 92.6497V89.7539C104.055 84.6113 102.884 80.9649 100.635 78.7133C98.3262 76.4424 95.2024 75.2881 91.2149 75.2881C87.3105 75.288 84.2703 76.4413 82.0431 78.7094C79.8324 80.9607 78.6806 84.6086 78.6806 89.7539V92.6497Z" fill="white"/>
<path d="M108.109 60.4021L107.67 60.6412L107.877 61.0212L108.283 60.8709L108.109 60.4021ZM69.7675 93.8839H70.2675V93.6251L70.0561 93.4757L69.7675 93.8839ZM69.7675 97.1623L69.5063 97.5887L70.2675 98.0549V97.1623H69.7675ZM110.85 59.6984L110.924 60.193L111.614 60.09L111.295 59.4697L110.85 59.6984ZM69.7675 83.0631H70.2675V82.9154L70.1872 82.7914L69.7675 83.0631ZM69.7675 87.1408L69.3973 87.4769L70.2675 88.4354V87.1408H69.7675ZM102.208 64.6282L101.76 64.8497L102.105 65.5472L102.596 64.9439L102.208 64.6282ZM104.051 62.7594L104.372 63.1427L104.687 62.8793L104.49 62.5195L104.051 62.7594ZM131.495 106.307L131.495 105.807L131.489 105.807L131.495 106.307ZM131.495 106.307L130.995 106.307V106.307H131.495ZM133.56 106.307L133.56 106.808L133.572 106.807L133.56 106.307ZM133.56 106.307L133.927 106.647L133.928 106.646L133.56 106.307ZM136.923 69.4271L137.28 69.7774L137.28 69.7774L136.923 69.4271ZM155.515 69.431L155.869 69.0776L155.866 69.0745L155.515 69.431ZM156.967 68.1366L157.322 67.785L157.32 67.7823L156.967 68.1366ZM156.965 68.1344L156.612 68.4886L156.612 68.4887L156.965 68.1344ZM146.095 64.1151L146.095 64.6151H146.095V64.1151ZM135.403 68.1404L135.761 68.489L135.764 68.4861L135.403 68.1404ZM133.726 70.3616L134.158 70.6133L134.158 70.6133L133.726 70.3616ZM131.255 70.3762L131.685 70.1196L131.685 70.1196L131.255 70.3762ZM129.527 68.1366L129.882 67.785L129.88 67.7823L129.527 68.1366ZM129.525 68.1344L129.172 68.4886L129.172 68.4887L129.525 68.1344ZM118.655 64.1151L118.655 64.6151H118.655V64.1151ZM107.963 68.1404L108.321 68.489L108.324 68.4861L107.963 68.1404ZM104.276 76.7669L103.78 76.7038L103.78 76.7038L104.276 76.7669ZM102.087 77.4189L102.442 77.0673L102.44 77.0644L102.087 77.4189ZM102.085 77.4167L101.732 77.7709L101.732 77.7712L102.085 77.4167ZM80.5225 77.4228L80.8811 77.7713L80.8838 77.7685L80.5225 77.4228ZM76.6154 89.7539L77.1154 89.7539V89.7539H76.6154ZM76.6154 114.59L76.1154 114.59V114.59H76.6154ZM78.6806 114.59L78.1806 114.59V114.59H78.6806ZM78.6806 96.7593L79.1806 96.7593V96.7593H78.6806ZM109.483 69.4271L109.84 69.7774L109.84 69.7774L109.483 69.4271ZM128.075 69.431L128.429 69.0776L128.426 69.0745L128.075 69.431ZM131.495 80.4716L131.995 80.4716V80.4716H131.495ZM100.635 78.7133L100.989 78.36L100.986 78.3568L100.635 78.7133ZM91.2149 75.2881L91.2149 75.7881H91.2149V75.2881ZM82.0431 78.7094L82.3999 79.0597L82.3999 79.0597L82.0431 78.7094ZM78.6806 89.7539L78.1806 89.7539V89.7539H78.6806ZM84.9974 47.2312C94.7998 47.2312 103.323 52.6568 107.67 60.6412L108.548 60.163C104.031 51.8668 95.177 46.2312 84.9974 46.2312V47.2312ZM59.2577 72.7189C59.2577 58.647 70.7772 47.2312 84.9974 47.2312V46.2312C70.234 46.2312 58.2577 58.0856 58.2577 72.7189H59.2577ZM70.0561 93.4757C63.5158 88.851 59.2577 81.2761 59.2577 72.7189H58.2577C58.2577 81.6169 62.6869 89.4896 69.4788 94.2922L70.0561 93.4757ZM70.2675 97.1623V93.8839H69.2675V97.1623H70.2675ZM55.5 72.7189C55.5 83.2312 61.1046 92.4431 69.5063 97.5887L70.0286 96.7359C61.9085 91.7628 56.5 82.8658 56.5 72.7189H55.5ZM84.9974 43.5C68.711 43.5 55.5 56.5772 55.5 72.7189H56.5C56.5 57.1386 69.2542 44.5 84.9974 44.5V43.5ZM111.295 59.4697C106.418 49.9916 96.4734 43.5 84.9974 43.5V44.5C96.0879 44.5 105.695 50.7724 110.405 59.9272L111.295 59.4697ZM108.283 60.8709C109.126 60.5587 110.009 60.3293 110.924 60.193L110.776 59.2039C109.793 59.3506 108.842 59.5972 107.935 59.9332L108.283 60.8709ZM69.2675 83.0631V87.1408H70.2675V83.0631H69.2675ZM66.2748 72.9082C66.2748 76.752 67.4038 80.3326 69.3478 83.3349L70.1872 82.7914C68.3449 79.9462 67.2748 76.5534 67.2748 72.9082H66.2748ZM85.4549 53.7114C74.8706 53.7114 66.2748 62.2976 66.2748 72.9082H67.2748C67.2748 62.8496 75.4231 54.7114 85.4549 54.7114V53.7114ZM102.656 64.4066C99.5227 58.0663 92.9936 53.7114 85.4549 53.7114V54.7114C92.5987 54.7114 98.7883 58.8373 101.76 64.8497L102.656 64.4066ZM103.73 62.3761C103.034 62.9595 102.394 63.6081 101.821 64.3125L102.596 64.9439C103.129 64.2888 103.724 63.6854 104.372 63.1427L103.73 62.3761ZM85.4549 52.227C93.2907 52.227 100.103 56.5826 103.613 62.9994L104.49 62.5195C100.812 55.7952 93.671 51.227 85.4549 51.227V52.227ZM64.773 72.9082C64.773 61.4947 74.0242 52.227 85.4549 52.227V51.227C73.4714 51.227 63.773 60.9429 63.773 72.9082H64.773ZM70.1377 86.8047C66.8036 83.1323 64.773 78.2573 64.773 72.9082H63.773C63.773 78.5153 65.9027 83.6276 69.3973 87.4769L70.1377 86.8047ZM131.489 105.807C131.767 105.804 131.995 106.028 131.995 106.307H130.995C130.995 106.587 131.224 106.811 131.502 106.807L131.489 105.807ZM133.56 105.807L131.495 105.807L131.495 106.807L133.56 106.807L133.56 105.807ZM133.194 105.967C133.285 105.869 133.413 105.811 133.548 105.808L133.572 106.807C133.708 106.804 133.835 106.746 133.927 106.647L133.194 105.967ZM133.061 106.307C133.061 106.183 133.107 106.062 133.193 105.968L133.928 106.646C134.014 106.553 134.061 106.431 134.061 106.307H133.061ZM133.061 80.4716V106.307H134.061V80.4716H133.061ZM136.566 69.0767C134.223 71.4627 133.061 75.2672 133.061 80.4716H134.061C134.061 75.3854 135.201 71.8941 137.28 69.7774L136.566 69.0767ZM146.095 65.5057C142.086 65.5057 138.906 66.6938 136.566 69.0767L137.28 69.7774C139.394 67.6241 142.295 66.5057 146.095 66.5057V65.5057ZM155.866 69.0745C153.444 66.6931 150.185 65.5057 146.095 65.5057V66.5057C149.98 66.5057 152.968 67.627 155.164 69.7875L155.866 69.0745ZM159.435 80.4716C159.435 75.2679 158.252 71.4637 155.869 69.0777L155.161 69.7843C157.276 71.9015 158.435 75.3901 158.435 80.4716H159.435ZM159.435 105.307V80.4716H158.435V105.307H159.435ZM159.935 105.807C159.659 105.807 159.435 105.584 159.435 105.307H158.435C158.435 106.136 159.106 106.807 159.935 106.807V105.807ZM160 105.807H159.935V106.807H160V105.807ZM160.5 105.307C160.5 105.584 160.276 105.807 160 105.807V106.807C160.828 106.807 161.5 106.136 161.5 105.307H160.5ZM160.5 80.4716V105.307H161.5V80.4716H160.5ZM156.611 68.4882C159.199 71.1044 160.5 75.0936 160.5 80.4716H161.5C161.5 74.9497 160.165 70.6589 157.322 67.785L156.611 68.4882ZM156.612 68.4887L156.614 68.4909L157.32 67.7823L157.317 67.78L156.612 68.4887ZM146.095 64.6151C150.52 64.6151 154.022 65.9086 156.612 68.4886L157.318 67.7801C154.503 64.9759 150.726 63.6151 146.095 63.6151V64.6151ZM135.764 68.4861C138.231 65.9083 141.671 64.6151 146.095 64.6151L146.095 63.6151C141.467 63.6151 137.74 64.9751 135.041 67.7947L135.764 68.4861ZM134.158 70.6133C134.618 69.823 135.152 69.115 135.761 68.489L135.044 67.7919C134.376 68.4791 133.793 69.2528 133.294 70.11L134.158 70.6133ZM130.826 70.6328C131.191 71.2424 131.884 71.4949 132.497 71.4913C133.111 71.4876 133.801 71.2269 134.158 70.6133L133.294 70.11C133.166 70.3289 132.868 70.489 132.491 70.4913C132.115 70.4935 131.815 70.337 131.685 70.1196L130.826 70.6328ZM129.171 68.4882C129.8 69.1236 130.351 69.8384 130.826 70.6328L131.685 70.1196C131.17 69.2588 130.57 68.4797 129.882 67.785L129.171 68.4882ZM129.172 68.4887L129.174 68.4909L129.88 67.7823L129.878 67.78L129.172 68.4887ZM118.655 64.6151C123.08 64.6151 126.582 65.9086 129.172 68.4886L129.878 67.7801C127.063 64.9759 123.286 63.6151 118.655 63.6151V64.6151ZM108.324 68.4861C110.791 65.9083 114.231 64.6151 118.655 64.6151L118.655 63.6151C114.027 63.6151 110.3 64.9751 107.601 67.7947L108.324 68.4861ZM104.772 76.83C105.23 73.2251 106.415 70.4494 108.321 68.489L107.604 67.7919C105.505 69.9513 104.257 72.9528 103.78 76.7038L104.772 76.83ZM101.731 77.7705C102.219 78.2637 102.954 78.3073 103.514 78.145C104.073 77.9833 104.68 77.5487 104.772 76.83L103.78 76.7038C103.758 76.8734 103.586 77.0831 103.236 77.1845C102.888 77.2853 102.584 77.2108 102.442 77.0673L101.731 77.7705ZM101.732 77.7712L101.734 77.7734L102.44 77.0644L102.437 77.0622L101.732 77.7712ZM91.2149 73.8974C95.6395 73.8974 99.142 75.1909 101.732 77.7709L102.438 77.0625C99.6227 74.2582 95.8456 72.8974 91.2149 72.8974V73.8974ZM80.8838 77.7685C83.3508 75.1906 86.7908 73.8974 91.2149 73.8974V72.8974C86.5867 72.8974 82.8597 74.2574 80.1613 77.0771L80.8838 77.7685ZM77.1154 89.7539C77.1154 84.3371 78.3758 80.3484 80.8811 77.7713L80.164 77.0742C77.4044 79.9131 76.1154 84.2046 76.1154 89.7539H77.1154ZM77.1154 114.59L77.1154 89.7539L76.1154 89.7539L76.1154 114.59L77.1154 114.59ZM77.6154 115.09C77.3393 115.09 77.1154 114.866 77.1154 114.59H76.1154C76.1154 115.418 76.787 116.09 77.6154 116.09V115.09ZM77.6806 115.09H77.6154V116.09H77.6806V115.09ZM78.1806 114.59C78.1806 114.866 77.9568 115.09 77.6806 115.09V116.09C78.5091 116.09 79.1806 115.418 79.1806 114.59H78.1806ZM78.1806 96.7593L78.1806 114.59L79.1806 114.59L79.1806 96.7593L78.1806 96.7593ZM79.6806 95.2593C78.8522 95.2593 78.1806 95.9309 78.1806 96.7593H79.1806C79.1806 96.4832 79.4045 96.2593 79.6806 96.2593V95.2593ZM103.055 95.2593H79.6806V96.2593H103.055V95.2593ZM104.555 96.7593C104.555 95.9309 103.883 95.2593 103.055 95.2593V96.2593C103.331 96.2593 103.555 96.4832 103.555 96.7593H104.555ZM104.555 114.59V96.7593H103.555V114.59H104.555ZM105.055 115.09C104.779 115.09 104.555 114.866 104.555 114.59H103.555C103.555 115.418 104.226 116.09 105.055 116.09V115.09ZM105.12 115.09H105.055V116.09H105.12V115.09ZM105.62 114.59C105.62 114.866 105.396 115.09 105.12 115.09V116.09C105.948 116.09 106.62 115.418 106.62 114.59H105.62ZM105.62 106.308V114.59H106.62V106.308H105.62ZM106.12 105.807C105.844 105.807 105.62 106.031 105.62 106.308H106.62C106.62 106.584 106.396 106.807 106.12 106.807V105.807ZM105.621 106.307C105.621 106.027 105.849 105.807 106.12 105.807V106.807C106.393 106.807 106.621 106.588 106.621 106.307H105.621ZM105.621 80.4716V106.307H106.621V80.4716H105.621ZM109.126 69.0767C106.784 71.4627 105.621 75.2672 105.621 80.4716H106.621C106.621 75.3854 107.761 71.8941 109.84 69.7774L109.126 69.0767ZM118.655 65.5057C114.646 65.5057 111.466 66.6938 109.126 69.0767L109.84 69.7774C111.954 67.6241 114.855 66.5057 118.655 66.5057V65.5057ZM128.426 69.0745C126.005 66.6931 122.745 65.5057 118.655 65.5057V66.5057C122.54 66.5057 125.528 67.627 127.725 69.7875L128.426 69.0745ZM131.995 80.4716C131.995 75.2679 130.812 71.4637 128.429 69.0777L127.721 69.7843C129.836 71.9015 130.995 75.3901 130.995 80.4716H131.995ZM131.995 106.307L131.995 80.4716L130.995 80.4716L130.995 106.307L131.995 106.307ZM79.6806 93.1497C79.4045 93.1497 79.1806 92.9258 79.1806 92.6497H78.1806C78.1806 93.4781 78.8522 94.1497 79.6806 94.1497V93.1497ZM103.055 93.1497H79.6806V94.1497H103.055V93.1497ZM103.555 92.6497C103.555 92.9258 103.331 93.1497 103.055 93.1497V94.1497C103.883 94.1497 104.555 93.4781 104.555 92.6497H103.555ZM103.555 89.7539V92.6497H104.555V89.7539H103.555ZM100.281 79.0666C102.396 81.1839 103.555 84.6724 103.555 89.7539H104.555C104.555 84.5502 103.372 80.746 100.989 78.36L100.281 79.0666ZM91.2149 75.7881C95.1003 75.7881 98.088 76.9094 100.284 79.0698L100.986 78.3568C98.5645 75.9754 95.3046 74.7881 91.2149 74.7881V75.7881ZM82.3999 79.0597C84.5143 76.9064 87.4153 75.788 91.2149 75.7881L91.2149 74.7881C87.2056 74.788 84.0263 75.9761 81.6864 78.3591L82.3999 79.0597ZM79.1806 89.7539C79.1806 84.6677 80.3214 81.1765 82.3999 79.0597L81.6864 78.3591C79.3435 80.745 78.1806 84.5495 78.1806 89.7539L79.1806 89.7539ZM79.1806 92.6497V89.7539H78.1806V92.6497H79.1806Z" fill="white" mask="url(#path-4-outside-1_119_108)"/>
</svg>
