<svg width="505" height="159" viewBox="0 0 505 159" fill="none" xmlns="http://www.w3.org/2000/svg">
<rect width="505" height="159" fill="#011E39"/>
<path fill-rule="evenodd" clip-rule="evenodd" d="M180.737 44.6867C174.503 41.5622 167.031 40 158.319 40H135V118H158.319C167.031 118 174.503 116.475 180.737 113.425C186.97 110.3 191.739 105.837 195.043 100.034C198.348 94.1574 200 87.2017 200 79.1674C200 71.0587 198.348 64.0658 195.043 58.1888C191.739 52.3119 186.97 47.8112 180.737 44.6867ZM183.328 103.047C177.62 108.701 169.284 111.528 158.319 111.528H142.886V46.4721H158.319C169.284 46.4721 177.62 49.3734 183.328 55.176C189.11 60.9041 192.002 68.9013 192.002 79.1674C192.002 89.3591 189.11 97.319 183.328 103.047ZM213.671 46.4629V75.5457H242.712V82.0086H213.671V111.537H246V118H206V40H246V46.4629H213.671ZM264.612 115.378C268.521 117.126 273.02 118 278.108 118C283.345 118 287.844 117.017 291.605 115.05C295.367 113.084 298.206 110.499 300.124 107.294C302.041 104.09 303 100.703 303 97.1345C303 92.4734 301.931 88.7591 299.792 85.9916C297.653 83.2241 295.035 81.1849 291.937 79.874C288.839 78.4902 284.783 77.1064 279.768 75.7227C275.416 74.5574 271.95 73.465 269.369 72.4454C266.861 71.4258 264.759 69.9328 263.063 67.9664C261.367 66 260.518 63.4146 260.518 60.2101C260.518 55.986 262.067 52.6723 265.165 50.2689C268.262 47.7927 272.134 46.5546 276.781 46.5546C281.796 46.5546 285.779 47.7927 288.729 50.2689C291.679 52.6723 293.412 55.4398 293.928 58.5714H302.336C301.672 53.1092 299.128 48.6667 294.703 45.2437C290.351 41.7479 284.599 40 277.445 40C272.577 40 268.262 40.874 264.501 42.6218C260.74 44.3697 257.826 46.8095 255.761 49.9412C253.696 53 252.664 56.4958 252.664 60.4286C252.664 65.1625 253.733 68.9132 255.872 71.6807C258.011 74.4482 260.592 76.4874 263.616 77.7983C266.64 79.1092 270.733 80.4566 275.896 81.8403C280.321 83.0056 283.787 84.098 286.295 85.1176C288.803 86.0644 290.905 87.5574 292.601 89.5966C294.297 91.563 295.145 94.1849 295.145 97.4622C295.145 101.541 293.597 104.927 290.499 107.622C287.475 110.244 283.345 111.555 278.108 111.555C272.429 111.555 268.115 110.171 265.165 107.403C262.215 104.563 260.555 101.286 260.187 97.5714H252C252.148 101.431 253.328 104.927 255.54 108.059C257.753 111.19 260.777 113.63 264.612 115.378ZM316 40V118H309V40H316ZM377 51.3613C381.639 54.2017 385.082 58.1345 387.327 63.1597H396.531C393.687 55.8767 389.122 50.1961 382.837 46.1176C376.551 42.0392 369.218 40 360.837 40C353.578 40 346.993 41.6751 341.082 45.0252C335.17 48.3025 330.493 52.9272 327.051 58.8992C323.684 64.7983 322 71.4986 322 79C322 86.5014 323.684 93.2381 327.051 99.2101C330.493 105.109 335.17 109.734 341.082 113.084C346.993 116.361 353.578 118 360.837 118C367.871 118 374.194 116.434 379.806 113.303C385.493 110.171 390.02 105.91 393.388 100.521C396.755 95.0588 398.626 88.9776 399 82.2773V76.7059H357.694V82.9328H390.694C390.32 88.6134 388.786 93.6022 386.092 97.8992C383.473 102.123 379.956 105.401 375.541 107.731C371.201 109.989 366.299 111.118 360.837 111.118C355 111.118 349.762 109.807 345.122 107.185C340.483 104.563 336.816 100.812 334.122 95.9328C331.429 91.0532 330.082 85.409 330.082 79C330.082 72.591 331.429 66.9832 334.122 62.1765C336.816 57.2969 340.483 53.5462 345.122 50.9244C349.762 48.3025 355 46.9916 360.837 46.9916C367.048 46.9916 372.435 48.4482 377 51.3613ZM455.296 117H463V41H455.296V104.823L412.704 41H405V117H412.704V53.0687L455.296 117Z" fill="white"/>
<path fill-rule="evenodd" clip-rule="evenodd" d="M52.4621 72.0622H42V93.7511C42 98.9954 43.0821 103.498 45.3017 107.21L45.3069 107.218L45.3123 107.227C47.582 110.852 50.6408 113.567 54.4739 115.353L54.4798 115.355C58.3428 117.125 62.6384 118 67.3492 118C72.0585 118 76.3247 117.125 80.1287 115.354C84.0223 113.57 87.1143 110.856 89.386 107.227L89.39 107.221C91.6761 103.507 92.7913 99.0003 92.7913 93.7511V72.0622H82.3292V93.8391C82.3292 99.135 80.9489 102.869 78.3759 105.254L78.3679 105.262C75.8159 107.68 72.2187 108.949 67.4421 108.949C62.6033 108.949 58.9413 107.68 56.3264 105.258C53.8133 102.874 52.4621 99.1381 52.4621 93.8391V72.0622ZM120 72.0622H109.538V117.384H120V72.0622Z" fill="white"/>
<path fill-rule="evenodd" clip-rule="evenodd" d="M96.3249 49.2028C96.3942 49.52 96.4552 49.8459 96.5078 50.1803C96.5596 49.8453 96.6196 49.5189 96.688 49.2012L96.3249 49.2028ZM96.4864 46.5789C97.0022 45.3502 97.6863 44.2862 98.5468 43.3982C100.734 41.1064 103.757 40 107.51 40C111.267 40 114.33 41.1074 116.612 43.3876L116.616 43.3915C118.919 45.727 120 49.2119 120 53.6959V69H117.494V53.6959C117.494 49.5666 116.555 46.732 114.844 45.0125C113.067 43.2604 110.652 42.3518 107.51 42.3518C104.438 42.3518 102.092 43.2585 100.382 45.0058C98.6987 46.7248 97.774 49.562 97.774 53.6959L97.774 69H95.2458V53.6959C95.2458 49.5668 94.3068 46.7323 92.5955 45.0128C90.8186 43.2605 88.4032 42.3518 85.2618 42.3518C82.1892 42.3518 79.8437 43.2585 78.133 45.0058C76.45 46.7248 75.5253 49.562 75.5253 53.6959L75.5253 69H73.0198L73.0198 53.6959C73.0198 49.1902 74.0629 45.705 76.2981 43.3982C78.4856 41.1064 81.5084 40 85.2618 40C89.0178 40 92.0815 41.1074 94.3636 43.3876L94.3675 43.3915C95.2502 44.2866 95.9542 45.3525 96.4864 46.5789ZM45.2413 43.7638C47.4047 41.4973 50.3938 40 54.1041 40C57.8169 40 60.8463 41.4982 63.103 43.7531L63.1069 43.757C65.3846 46.0667 66.4527 49.5125 66.4527 53.9439L66.4527 69H63.959L63.959 60.3313H44.4936L44.4936 69H42V53.9439C42 49.4913 43.0308 46.0453 45.2413 43.7638ZM54.1041 42.3518C51.0703 42.3518 48.7555 43.6402 47.0675 45.3644C45.4071 47.0604 44.4936 49.8607 44.4936 53.9439L44.4936 57.9329H63.959V53.9439C63.959 49.8654 63.0315 47.0678 61.3432 45.3714C59.5896 43.6422 57.2058 42.3518 54.1041 42.3518Z" fill="white"/>
<rect x="20.5" y="20.5" width="464" height="118" stroke="white"/>
</svg>
