<svg width="505" height="160" viewBox="0 0 505 160" fill="none" xmlns="http://www.w3.org/2000/svg">
<rect width="505" height="160" rx="10" fill="#011E39"/>
<path fill-rule="evenodd" clip-rule="evenodd" d="M269.563 52.9632V43.9933H279.701V42H267.157V66.0571H279.701V64.0638H269.563V54.9565H278.67V52.9632H269.563ZM297.913 54.0629L305.199 66.0571H302.519L296.401 56.0219L290.593 66.0571H287.912L295.164 53.9598L287.912 42.0344H290.593L296.676 52.0353L302.553 42.0344H305.234L297.913 54.0629ZM364.557 42.0344V66.0571H362.152V42.0344H364.557ZM385.849 64.0982H377.222V42.0344H374.817V66.0571H385.849V64.0982ZM396.499 64.0982H405.125V66.0571H394.093V42.0344H396.499V64.0982ZM447.44 56.0219L453.385 66.0571H456.272L450.086 55.85C452.033 55.4834 453.5 54.693 454.485 53.4787C455.493 52.2415 455.997 50.7522 455.997 49.0109C455.997 46.926 455.298 45.242 453.901 43.9589C452.526 42.6759 450.498 42.0344 447.818 42.0344H440.601V66.0571H443.006V56.0219H447.44ZM447.852 54.0629H443.006V44.062H447.818C449.788 44.062 451.232 44.4974 452.148 45.368C453.064 46.2157 453.523 47.43 453.523 49.0109C453.523 50.546 453.042 51.7718 452.079 52.6882C451.14 53.6047 449.731 54.0629 447.852 54.0629ZM416.36 60.3521H427.289L429.385 66.0571H431.928L423.199 42.3437H420.484L411.72 66.0571H414.263L416.36 60.3521ZM421.824 45.368L426.567 58.3588H417.081L421.824 45.368ZM351.883 66.0571V42.3437H349.305L340.129 62.8953L330.953 42.3437H328.41V66.0571H330.816V47.1895L339.27 66.0571H341.023L349.477 47.1207V66.0571H351.883ZM250.286 64.0982H258.912V66.0571H247.88V42.0344H250.286V64.0982ZM223.64 60.3521H234.568L236.665 66.0571H239.208L230.479 42.3437H227.764L219 66.0571H221.543L223.64 60.3521ZM229.104 45.368L233.847 58.3588H224.361L229.104 45.368Z" fill="white"/>
<path fill-rule="evenodd" clip-rule="evenodd" d="M311.688 116.778C313.68 117.632 315.922 118.059 318.413 118.059C321.047 118.059 323.324 117.561 325.246 116.564C327.203 115.532 328.68 114.18 329.676 112.507C330.708 110.835 331.224 109.056 331.224 107.17C331.224 104.821 330.673 102.953 329.57 101.565C328.502 100.141 327.185 99.0915 325.62 98.4153C324.089 97.7392 322.097 97.0631 319.641 96.3869C317.791 95.8887 316.332 95.4261 315.264 94.9991C314.196 94.572 313.307 94.0027 312.595 93.2909C311.919 92.5436 311.581 91.6006 311.581 90.4618C311.581 88.7893 312.132 87.5082 313.236 86.6185C314.339 85.7289 315.762 85.2841 317.506 85.2841C319.428 85.2841 320.976 85.7645 322.15 86.7253C323.324 87.6861 323.965 88.8427 324.072 90.1949H330.797C330.548 87.0634 329.267 84.6079 326.954 82.8286C324.677 81.0137 321.741 80.1063 318.147 80.1063C315.62 80.1063 313.396 80.5333 311.474 81.3874C309.552 82.2414 308.058 83.4692 306.99 85.0705C305.923 86.6719 305.389 88.5402 305.389 90.6754C305.389 92.9885 305.923 94.8389 306.99 96.2268C308.058 97.6147 309.339 98.6467 310.834 99.3228C312.364 99.9634 314.339 100.604 316.759 101.244C318.68 101.743 320.175 102.205 321.243 102.632C322.346 103.059 323.253 103.664 323.965 104.447C324.712 105.23 325.086 106.244 325.086 107.49C325.086 109.091 324.499 110.408 323.324 111.44C322.15 112.436 320.513 112.935 318.413 112.935C316.385 112.935 314.801 112.419 313.663 111.387C312.559 110.355 311.937 109.038 311.794 107.436H305.282C305.282 109.572 305.852 111.44 306.99 113.041C308.129 114.643 309.695 115.888 311.688 116.778ZM396.677 87.0989C398.386 88.0242 399.72 89.412 400.681 91.2625H407.994C406.606 87.7039 404.364 84.9638 401.268 83.0421C398.208 81.0849 394.702 80.1063 390.752 80.1063C387.3 80.1063 384.116 80.9247 381.197 82.5617C378.315 84.1631 376.02 86.405 374.312 89.2875C372.639 92.17 371.803 95.4261 371.803 99.0559C371.803 102.686 372.639 105.942 374.312 108.824C376.02 111.707 378.315 113.967 381.197 115.603C384.08 117.205 387.265 118.006 390.752 118.006C393.991 118.006 396.927 117.294 399.56 115.87C402.229 114.411 404.382 112.472 406.019 110.052C407.691 107.632 408.723 104.981 409.115 102.099V97.3478H388.671V102.205H402.603C402.14 105.372 400.877 107.881 398.813 109.732C396.749 111.582 394.062 112.507 390.752 112.507C388.297 112.507 386.108 111.956 384.187 110.853C382.265 109.75 380.753 108.184 379.649 106.155C378.582 104.091 378.048 101.725 378.048 99.0559C378.048 96.3869 378.582 94.0382 379.649 92.0098C380.753 89.9814 382.265 88.4156 384.187 87.3125C386.108 86.2093 388.297 85.6577 390.752 85.6577C392.994 85.6577 394.969 86.1381 396.677 87.0989ZM450.187 117.685H456.272V80.5333H450.187V108.184L431.878 80.5333H425.793V117.685H431.878V89.9814L450.187 117.685ZM355.166 80.5867V117.685H349.081V80.5867H355.166ZM273.606 85.4975V96.3869H286.417V101.351H273.606V112.721H288.019V117.685H267.521V80.5333H288.019V85.4975H273.606ZM241.473 82.882C238.519 81.3518 235.067 80.5867 231.117 80.5867H219V117.685H231.117C235.067 117.685 238.519 116.956 241.473 115.497C244.462 114.002 246.757 111.867 248.359 109.091C249.996 106.315 250.814 103.042 250.814 99.2694C250.814 95.4973 249.996 92.2055 248.359 89.3942C246.757 86.5473 244.462 84.3766 241.473 82.882ZM241.099 109.198C238.786 111.547 235.459 112.721 231.117 112.721H225.085V85.5509H231.117C235.459 85.5509 238.786 86.7609 241.099 89.1807C243.412 91.6006 244.569 94.9635 244.569 99.2694C244.569 103.54 243.412 106.849 241.099 109.198Z" fill="white"/>
<path fill-rule="evenodd" clip-rule="evenodd" d="M122.914 82.8357L123.044 82.3873C123.907 79.4128 124.37 76.2695 124.37 73.0182C124.37 54.3598 109.127 39.2224 90.3092 39.2224C71.4915 39.2224 56.2485 54.3598 56.2485 73.0182C56.2485 84.8542 62.3806 95.2718 71.6709 101.31L71.8985 101.458V107.511L71.1607 107.102C59.1359 100.432 51 87.6701 51 73.0182C51 51.4626 68.6058 34 90.3092 34C112.013 34 129.618 51.4626 129.618 73.0182C129.618 77.2343 128.944 81.295 127.698 85.0997L127.429 85.9196L126.855 85.2777C126.442 84.8154 125.946 84.3811 125.358 83.9798C124.821 83.6128 124.125 83.2849 123.35 82.9974L122.914 82.8357ZM115.87 81.488L115.489 81.4803C114.339 81.4571 112.803 81.4928 111.488 81.7454L110.628 81.9106L110.927 81.0828C111.774 78.7336 112.237 76.1978 112.237 73.5522C112.237 61.367 102.42 51.4889 90.3092 51.4889C78.1988 51.4889 68.3814 61.367 68.3814 73.5522C68.3814 77.9218 69.6433 81.9932 71.8202 85.4196L71.8985 85.5429V93.1042L71.0425 92.2095C66.4151 87.3728 63.5691 80.7964 63.5691 73.5522C63.5691 58.6928 75.5411 46.6468 90.3092 46.6468C105.077 46.6468 117.049 58.6928 117.049 73.5522C117.049 76.1792 116.675 78.7191 115.977 81.1203L115.87 81.488ZM105.112 103.312L105.111 108.593L105.111 104.093L105.112 103.312ZM123.57 94.3283C121.779 92.5576 119.325 91.6113 116.05 91.6113C112.851 91.6113 110.475 92.5541 108.756 94.3158C107.09 96.0231 106.107 98.9127 106.107 103.312L106.106 108.593C106.106 109.647 105.257 110.501 104.21 110.501C103.163 110.501 102.314 109.647 102.314 108.593L102.314 93.0882H82.1599L82.1599 108.593C82.1599 109.647 81.3108 110.501 80.2635 110.501C79.2162 110.501 78.3672 109.647 78.3672 108.593L78.3672 86.8136C78.3672 81.868 79.5073 77.9304 82.0558 75.2905C84.5397 72.6806 87.9517 71.4497 92.1034 71.4497C96.2596 71.4497 99.7091 72.6823 102.291 75.2707L102.299 75.2781C104.922 77.9466 106.106 81.8839 106.106 86.8136L106.106 91.6819C108.581 89.1456 111.956 87.9485 116.05 87.9485C120.207 87.9485 123.656 89.1812 126.239 91.7697L126.246 91.7769C126.785 92.3253 127.265 92.9298 127.687 93.588C127.706 93.6164 127.832 93.734 128.12 93.7323C128.409 93.7306 128.534 93.6114 128.553 93.5823C128.961 92.9295 129.427 92.3309 129.95 91.7891C132.434 89.1793 135.846 87.9485 139.997 87.9485C144.153 87.9485 147.603 89.1812 150.185 91.7697L150.193 91.7769C152.816 94.4454 154 98.3827 154 103.312V125.092C154 126.146 153.151 127 152.104 127C151.056 127 150.207 126.146 150.207 125.092V103.312C150.207 98.9218 149.211 96.0369 147.517 94.3285C145.726 92.5577 143.272 91.6113 139.997 91.6113C136.798 91.6113 134.422 92.5541 132.703 94.3158C131.037 96.0231 130.054 98.9127 130.054 103.312L130.053 125.092C130.053 126.146 129.204 127 128.157 127C127.109 127 126.26 126.146 126.26 125.092V103.312C126.26 98.9216 125.264 96.0366 123.57 94.3283ZM102.314 89.2331V86.8136C102.314 82.4229 101.317 79.5379 99.6233 77.8296C97.8323 76.0588 95.378 75.1125 92.1034 75.1125C88.9045 75.1125 86.5284 76.0554 84.8092 77.817C83.143 79.5243 82.1599 82.4139 82.1599 86.8136L82.1599 89.2331H102.314Z" fill="white"/>
</svg>
